<svg width="219" height="76" viewBox="0 0 219 76" fill="none" xmlns="http://www.w3.org/2000/svg">
<mask id="mask0_28_314" style="mask-type:alpha" maskUnits="userSpaceOnUse" x="0" y="0" width="219" height="76">
<rect width="219" height="76" fill="#D9D9D9"/>
</mask>
<g mask="url(#mask0_28_314)">
</g>
<g clip-path="url(#clip0_28_314)">
<path d="M93.1 40.555C92.717 41.585 91.76 42.157 90.58 42.157C90.1585 42.1645 89.7397 42.0879 89.3482 41.9318C88.9566 41.7757 88.6 41.5431 88.2993 41.2477C87.9986 40.9523 87.7597 40.5999 87.5967 40.2111C87.4336 39.8224 87.3497 39.4051 87.3497 38.9835C87.3497 38.5619 87.4336 38.1446 87.5967 37.7559C87.7597 37.3671 87.9986 37.0147 88.2993 36.7193C88.6 36.4239 88.9566 36.1913 89.3482 36.0352C89.7397 35.8791 90.1585 35.8025 90.58 35.81C91.76 35.81 92.687 36.314 93.1 37.413H96.337C95.801 34.597 93.459 32.789 90.579 32.789C89.7561 32.7742 88.9385 32.9235 88.1739 33.2282C87.4094 33.5329 86.7132 33.9869 86.126 34.5636C85.5388 35.1403 85.0724 35.8282 84.754 36.5872C84.4357 37.3462 84.2717 38.161 84.2717 38.984C84.2717 39.807 84.4357 40.6218 84.754 41.3808C85.0724 42.1398 85.5388 42.8277 86.126 43.4044C86.7132 43.9811 87.4094 44.4351 88.1739 44.7398C88.9385 45.0445 89.7561 45.1938 90.579 45.179C93.459 45.179 95.948 43.156 96.337 40.555H93.1ZM79.767 33.1H83.138V44.96H79.768L79.767 33.1ZM83.477 30.234C83.483 30.505 83.4348 30.7744 83.3353 31.0265C83.2357 31.2786 83.0868 31.5083 82.8973 31.702C82.7078 31.8958 82.4815 32.0498 82.2317 32.1549C81.9818 32.26 81.7135 32.3141 81.4425 32.3141C81.1715 32.3141 80.9032 32.26 80.6533 32.1549C80.4035 32.0498 80.1772 31.8958 79.9877 31.702C79.7982 31.5083 79.6493 31.2786 79.5497 31.0265C79.4502 30.7744 79.402 30.505 79.408 30.234C79.408 29.6943 79.6224 29.1767 80.004 28.795C80.3857 28.4134 80.9033 28.199 81.443 28.199C81.9827 28.199 82.5003 28.4134 82.882 28.795C83.2636 29.1767 83.477 29.6943 83.477 30.234ZM70.112 34.552C70.678 33.532 71.962 32.835 73.812 32.835C76.802 32.835 78.385 34.738 78.385 37.563V44.959H75.015V37.916C75.015 36.533 74.398 35.581 72.908 35.581C71.274 35.581 70.369 36.582 70.369 38.161V44.949H67V33.099H70.113L70.112 34.552Z" fill="black"/>
<path fill-rule="evenodd" clip-rule="evenodd" d="M59.711 42.157C60.1324 42.1645 60.5512 42.0881 60.9428 41.932C61.3344 41.7759 61.691 41.5434 61.9918 41.248C62.2926 40.9527 62.5315 40.6003 62.6946 40.2116C62.8577 39.8229 62.9417 39.4056 62.9418 38.984C62.9419 38.5624 62.858 38.1451 62.695 37.7563C62.532 37.3676 62.2932 37.0151 61.9925 36.7197C61.6918 36.4242 61.3353 36.1916 60.9438 36.0354C60.5522 35.8792 60.1335 35.8026 59.712 35.81C58.8801 35.8248 58.0872 36.1656 57.5041 36.7591C56.921 37.3527 56.5943 38.1515 56.5943 38.9835C56.5943 39.8155 56.921 40.6143 57.5041 41.2078C58.0872 41.8014 58.8801 42.1422 59.712 42.157H59.711ZM59.711 45.178C60.5376 45.199 61.3601 45.0543 62.13 44.7525C62.8998 44.4507 63.6015 43.9978 64.1936 43.4205C64.7857 42.8433 65.2563 42.1534 65.5776 41.3914C65.8989 40.6295 66.0644 39.8109 66.0644 38.984C66.0644 38.1571 65.8989 37.3385 65.5776 36.5766C65.2563 35.8146 64.7857 35.1247 64.1936 34.5475C63.6015 33.9702 62.8998 33.5173 62.13 33.2155C61.3601 32.9137 60.5376 32.769 59.711 32.79C58.8843 32.769 58.0618 32.9137 57.292 33.2155C56.5221 33.5173 55.8204 33.9702 55.2283 34.5475C54.6362 35.1247 54.1657 35.8146 53.8444 36.5766C53.5231 37.3385 53.3575 38.1571 53.3575 38.984C53.3575 39.8109 53.5231 40.6295 53.8444 41.3914C54.1657 42.1534 54.6362 42.8433 55.2283 43.4205C55.8204 43.9978 56.5221 44.4507 57.292 44.7525C58.0618 45.0543 58.8843 45.199 59.711 45.178Z" fill="black"/>
<path d="M48.96 33.1H52.33V44.96H48.96V33.1ZM52.67 30.234C52.67 30.7737 52.4556 31.2913 52.0739 31.673C51.6923 32.0546 51.1747 32.269 50.635 32.269C50.0953 32.269 49.5777 32.0546 49.196 31.673C48.8144 31.2913 48.6 30.7737 48.6 30.234C48.6 29.6943 48.8144 29.1767 49.196 28.795C49.5777 28.4134 50.0953 28.199 50.635 28.199C51.1747 28.199 51.6923 28.4134 52.0739 28.795C52.4556 29.1767 52.67 29.6943 52.67 30.234Z" fill="black"/>
<path d="M18.36 38C18.36 32.124 23.124 27.36 29 27.36C31.366 27.36 33.55 28.13 35.317 29.437C35.548 28.8939 35.8961 28.4085 36.3364 28.0154C36.7767 27.6223 37.2983 27.3313 37.864 27.163C35.365 25.1136 32.2319 23.9956 29 24C21.268 24 15 30.268 15 38C15 45.732 21.268 52 29 52C36.732 52 43 45.732 43 38C43 36.382 42.725 34.825 42.218 33.376C41.8674 33.8513 41.4158 34.2429 40.8956 34.5227C40.3755 34.8025 39.7998 34.9634 39.21 34.994C39.49 35.946 39.64 36.954 39.64 38C39.64 43.876 34.876 48.64 29 48.64C23.124 48.64 18.36 43.876 18.36 38Z" fill="black"/>
<path d="M42.712 35.164C42.5873 34.5577 42.4223 33.9603 42.218 33.376C41.8674 33.8513 41.4158 34.2429 40.8956 34.5227C40.3755 34.8024 39.7998 34.9634 39.21 34.994C39.4109 35.6784 39.5422 36.3813 39.602 37.092C40.2289 37.0143 40.8314 36.8017 41.3683 36.4688C41.9052 36.136 42.3636 35.6909 42.712 35.164ZM29 44.125C30.6239 44.1231 32.1807 43.4772 33.329 42.329C34.4772 41.1807 35.1231 39.6239 35.125 38C35.1231 36.3761 34.4772 34.8193 33.329 33.671C32.1807 32.5228 30.6239 31.8769 29 31.875C27.3761 31.8769 25.8193 32.5228 24.671 33.671C23.5228 34.8193 22.8769 36.3761 22.875 38C22.8776 39.6236 23.5238 41.18 24.6719 42.3281C25.82 43.4762 27.3764 44.1224 29 44.125ZM38.188 32.75C38.5902 32.75 38.9884 32.6708 39.36 32.5169C39.7315 32.363 40.0691 32.1374 40.3535 31.853C40.6379 31.5686 40.8635 31.231 41.0174 30.8595C41.1713 30.4879 41.2505 30.0897 41.2505 29.6875C41.2505 29.2853 41.1713 28.8871 41.0174 28.5155C40.8635 28.144 40.6379 27.8064 40.3535 27.522C40.0691 27.2376 39.7315 27.012 39.36 26.8581C38.9884 26.7042 38.5902 26.625 38.188 26.625C37.3758 26.625 36.5968 26.9477 36.0225 27.522C35.4482 28.0963 35.1255 28.8753 35.1255 29.6875C35.1255 30.4997 35.4482 31.2787 36.0225 31.853C36.5968 32.4273 37.3758 32.75 38.188 32.75Z" fill="black"/>
<path d="M100.701 44.961H102.189V34.383H105.075V33.123H102.19V31.647C102.19 30.227 102.86 29.467 104.27 29.467C104.622 29.467 104.951 29.489 105.19 29.534V28.31C104.794 28.2288 104.39 28.1906 103.985 28.196C101.861 28.196 100.702 29.343 100.702 31.615V33.123H98.6689V34.383H100.7V44.963L100.701 44.961ZM112.092 33.03C112.092 33.03 111.812 33.006 111.696 33.006C109.509 33.006 108.346 34.146 107.904 34.96V33.122H106.322V44.962H107.973V38.239C107.973 35.774 109.486 34.564 111.51 34.564C111.813 34.564 112.092 34.588 112.092 34.588V33.03ZM123.353 33.122H121.771V35.309C120.956 33.797 119.444 32.843 117.28 32.843C113.65 32.843 111.696 35.797 111.696 39.053C111.696 42.31 113.65 45.24 117.28 45.24C119.444 45.24 120.956 44.287 121.771 42.775V44.961H123.353V33.122ZM113.371 39.053C113.371 36.472 114.953 34.332 117.606 34.332C120.258 34.332 121.771 36.472 121.771 39.053C121.771 41.635 120.258 43.752 117.606 43.752C114.953 43.752 113.371 41.635 113.371 39.053ZM134.611 38.053C134.611 35.541 136.147 34.285 138.008 34.285C140.079 34.285 140.963 35.727 140.963 37.728V44.961H142.615V37.402C142.615 34.89 141.173 32.843 138.287 32.843C136.17 32.843 134.774 33.983 134.123 35.123C133.494 33.75 132.191 32.843 130.26 32.843C127.957 32.843 126.933 34.169 126.514 34.937V33.122H124.932V44.962H126.584V37.914C126.584 35.634 128.05 34.285 129.981 34.285C132.052 34.285 132.959 35.658 132.959 37.728V44.961H134.611V38.053ZM155.112 39.519C155.112 39.519 155.136 39.146 155.136 38.891C155.136 35.541 152.972 32.843 149.435 32.843C145.875 32.843 143.618 35.751 143.618 39.03C143.618 42.356 145.712 45.24 149.459 45.24C152.274 45.24 154.228 43.52 154.926 41.263H153.205C152.693 42.705 151.297 43.752 149.482 43.752C146.992 43.752 145.433 41.914 145.27 39.519H155.112ZM149.435 34.332C151.762 34.332 153.274 35.89 153.484 38.17H145.317C145.596 35.983 147.132 34.332 149.435 34.332ZM166.94 44.961H168.661L172.803 33.122H171.058L167.824 43.008L164.613 33.122H162.891L159.634 43.008L156.446 33.122H154.678L158.773 44.962H160.494L163.729 35.216H163.752L166.94 44.961ZM178.539 45.24C182.285 45.24 184.588 42.31 184.588 39.053C184.588 35.797 182.285 32.843 178.539 32.843C174.816 32.843 172.513 35.797 172.513 39.053C172.513 42.31 174.816 45.24 178.539 45.24ZM174.188 39.053C174.188 36.379 175.91 34.332 178.539 34.332C181.191 34.332 182.913 36.379 182.913 39.053C182.913 41.705 181.191 43.752 178.539 43.752C175.91 43.752 174.188 41.705 174.188 39.053ZM191.899 33.03C191.899 33.03 191.619 33.006 191.503 33.006C189.316 33.006 188.153 34.146 187.71 34.96V33.122H186.128V44.962H187.78V38.239C187.78 35.774 189.293 34.564 191.317 34.564C191.619 34.564 191.899 34.588 191.899 34.588V33.03ZM194.291 38.454H194.154L194.349 28.558H192.86L192.666 44.961H194.154V40.214L195.54 38.931L200.471 44.961H202.38L196.665 37.977L202.13 32.73H200.267L194.291 38.454Z" fill="black"/>
</g>
<defs>
<clipPath id="clip0_28_314">
<rect width="188" height="28" fill="white" transform="translate(15 24)"/>
</clipPath>
</defs>
</svg>
