<svg width="219" height="76" viewBox="0 0 219 76" fill="none" xmlns="http://www.w3.org/2000/svg">
<mask id="mask0_28_320" style="mask-type:alpha" maskUnits="userSpaceOnUse" x="0" y="0" width="219" height="76">
<rect width="219" height="76" fill="#D9D9D9"/>
</mask>
<g mask="url(#mask0_28_320)">
<path d="M92.7439 39.152C92.7439 40.08 92.5279 40.88 92.0959 41.552C91.6799 42.224 91.1119 42.728 90.3919 43.064C89.6719 43.4 88.9359 43.64 88.1839 43.784C87.4479 43.928 86.6559 44 85.8079 44H78.9919V26.648H85.0159C86.6479 26.648 87.7839 26.72 88.4239 26.864C89.5439 27.12 90.4399 27.6 91.1119 28.304C91.7839 29.008 92.1199 29.92 92.1199 31.04C92.1199 33.056 90.9679 34.36 88.6639 34.952C91.3839 35.448 92.7439 36.848 92.7439 39.152ZM88.3759 31.52C88.3759 30 87.3439 29.24 85.2799 29.24H82.6399V33.872H85.0399C86.0479 33.872 86.8559 33.712 87.4639 33.392C88.0719 33.056 88.3759 32.432 88.3759 31.52ZM88.8799 38.888C88.8799 37.928 88.5839 37.264 87.9919 36.896C87.4159 36.528 86.6239 36.344 85.6159 36.344H82.6399V41.408H85.3999C87.7199 41.408 88.8799 40.568 88.8799 38.888Z" fill="black"/>
<path d="M106.116 33.248C107.284 34.352 107.868 35.904 107.868 37.904C107.868 39.904 107.268 41.472 106.068 42.608C104.884 43.728 103.284 44.288 101.268 44.288C99.2361 44.288 97.6361 43.728 96.4681 42.608C95.3001 41.488 94.7161 39.92 94.7161 37.904C94.7161 35.92 95.3241 34.368 96.5401 33.248C97.7561 32.128 99.3641 31.568 101.364 31.568C103.38 31.568 104.964 32.128 106.116 33.248ZM104.22 37.928C104.22 37.4 104.172 36.904 104.076 36.44C103.98 35.976 103.828 35.528 103.62 35.096C103.412 34.664 103.108 34.32 102.708 34.064C102.308 33.808 101.828 33.68 101.268 33.68C100.708 33.68 100.228 33.808 99.8281 34.064C99.4281 34.304 99.1241 34.648 98.9161 35.096C98.7241 35.528 98.5801 35.976 98.4841 36.44C98.4041 36.904 98.3641 37.4 98.3641 37.928C98.3641 39.096 98.5801 40.104 99.0121 40.952C99.4601 41.784 100.212 42.2 101.268 42.2C102.324 42.2 103.076 41.776 103.524 40.928C103.988 40.08 104.22 39.08 104.22 37.928Z" fill="black"/>
<path d="M121.046 33.248C122.214 34.352 122.798 35.904 122.798 37.904C122.798 39.904 122.198 41.472 120.998 42.608C119.814 43.728 118.214 44.288 116.198 44.288C114.166 44.288 112.566 43.728 111.398 42.608C110.23 41.488 109.646 39.92 109.646 37.904C109.646 35.92 110.254 34.368 111.47 33.248C112.686 32.128 114.294 31.568 116.294 31.568C118.31 31.568 119.894 32.128 121.046 33.248ZM119.15 37.928C119.15 37.4 119.102 36.904 119.006 36.44C118.91 35.976 118.758 35.528 118.55 35.096C118.342 34.664 118.038 34.32 117.638 34.064C117.238 33.808 116.758 33.68 116.198 33.68C115.638 33.68 115.158 33.808 114.758 34.064C114.358 34.304 114.054 34.648 113.846 35.096C113.654 35.528 113.51 35.976 113.414 36.44C113.334 36.904 113.294 37.4 113.294 37.928C113.294 39.096 113.51 40.104 113.942 40.952C114.39 41.784 115.142 42.2 116.198 42.2C117.254 42.2 118.006 41.776 118.454 40.928C118.918 40.08 119.15 39.08 119.15 37.928Z" fill="black"/>
<path d="M132.519 34.184H129.663V39.704C129.663 40.504 129.759 41.056 129.951 41.36C130.143 41.648 130.615 41.792 131.367 41.792C131.511 41.792 131.703 41.776 131.943 41.744C132.199 41.712 132.383 41.696 132.495 41.696V43.976C131.599 44.104 130.767 44.168 129.999 44.168C128.703 44.168 127.751 43.944 127.143 43.496C126.551 43.032 126.255 42.176 126.255 40.928V34.184H123.927V31.88H126.255V29.864L129.663 28.472V31.88H132.519V34.184Z" fill="black"/>
<path d="M145.017 40.328C145.017 41.08 144.849 41.728 144.513 42.272C144.177 42.816 143.713 43.232 143.121 43.52C142.545 43.792 141.945 43.992 141.321 44.12C140.697 44.248 140.033 44.312 139.329 44.312C135.713 44.312 133.905 42.92 133.905 40.136H137.433C137.481 41.576 138.169 42.296 139.497 42.296C140.025 42.296 140.489 42.152 140.889 41.864C141.289 41.576 141.489 41.184 141.489 40.688C141.489 39.904 140.721 39.336 139.185 38.984L137.865 38.672C137.337 38.544 136.889 38.408 136.521 38.264C136.153 38.12 135.777 37.92 135.393 37.664C135.025 37.408 134.737 37.08 134.529 36.68C134.337 36.28 134.241 35.808 134.241 35.264C134.241 34.576 134.393 33.984 134.697 33.488C135.017 32.976 135.441 32.592 135.969 32.336C136.513 32.08 137.065 31.896 137.625 31.784C138.201 31.656 138.801 31.592 139.425 31.592C140.913 31.592 142.137 31.896 143.097 32.504C144.057 33.112 144.577 34.112 144.657 35.504H141.225C141.193 34.912 141.017 34.44 140.697 34.088C140.393 33.736 139.953 33.56 139.377 33.56C138.897 33.56 138.473 33.672 138.105 33.896C137.737 34.12 137.553 34.456 137.553 34.904C137.553 35.336 137.737 35.672 138.105 35.912C138.489 36.152 139.081 36.36 139.881 36.536L141.249 36.848C142.401 37.12 143.313 37.512 143.985 38.024C144.673 38.52 145.017 39.288 145.017 40.328Z" fill="black"/>
<path d="M154.785 34.184H151.929V39.704C151.929 40.504 152.025 41.056 152.217 41.36C152.409 41.648 152.881 41.792 153.633 41.792C153.777 41.792 153.969 41.776 154.209 41.744C154.465 41.712 154.649 41.696 154.761 41.696V43.976C153.865 44.104 153.033 44.168 152.265 44.168C150.969 44.168 150.017 43.944 149.409 43.496C148.817 43.032 148.521 42.176 148.521 40.928V34.184H146.193V31.88H148.521V29.864L151.929 28.472V31.88H154.785V34.184Z" fill="black"/>
<path d="M164.642 34.904C164.258 34.856 163.906 34.832 163.586 34.832C161.49 34.832 160.442 35.984 160.442 38.288V44H156.938V34.856C156.938 34.536 156.922 34.048 156.89 33.392C156.858 32.736 156.842 32.24 156.842 31.904H160.226L160.322 34.136C161.09 32.6 162.338 31.832 164.066 31.832C164.306 31.832 164.498 31.84 164.642 31.856V34.904Z" fill="black"/>
<path d="M177.019 44H173.707C173.547 43.52 173.451 42.968 173.419 42.344C172.939 43.048 172.395 43.544 171.787 43.832C171.179 44.104 170.435 44.24 169.555 44.24C168.307 44.24 167.291 43.928 166.507 43.304C165.723 42.68 165.331 41.76 165.331 40.544C165.331 39.936 165.435 39.4 165.643 38.936C165.867 38.472 166.171 38.096 166.555 37.808C166.955 37.52 167.371 37.28 167.803 37.088C168.251 36.896 168.763 36.76 169.339 36.68C169.931 36.584 170.451 36.52 170.899 36.488C171.363 36.456 171.875 36.44 172.435 36.44H173.419V35.984C173.419 34.304 172.811 33.464 171.595 33.464C170.347 33.464 169.723 34.096 169.723 35.36H166.147C166.163 34.656 166.323 34.048 166.627 33.536C166.947 33.008 167.379 32.608 167.923 32.336C168.467 32.048 169.035 31.848 169.627 31.736C170.219 31.608 170.859 31.544 171.547 31.544C173.355 31.544 174.683 31.864 175.531 32.504C176.395 33.144 176.827 34.392 176.827 36.248V39.848C176.827 41.672 176.891 43.056 177.019 44ZM173.419 38.36V38.144C173.307 38.144 173.155 38.144 172.963 38.144C172.771 38.128 172.619 38.12 172.507 38.12C171.899 38.12 171.347 38.168 170.851 38.264C170.355 38.36 169.883 38.584 169.435 38.936C169.003 39.288 168.787 39.76 168.787 40.352C168.787 40.896 168.979 41.336 169.363 41.672C169.747 41.992 170.211 42.152 170.755 42.152C172.531 42.152 173.419 40.888 173.419 38.36Z" fill="black"/>
<path d="M192.743 37.736C192.743 39.56 192.271 41.104 191.327 42.368C190.399 43.616 189.055 44.24 187.295 44.24C186.479 44.24 185.791 44.104 185.231 43.832C184.671 43.544 184.127 43.08 183.599 42.44V48.56H180.095V34.88C180.095 34.24 180.063 33.248 179.999 31.904H183.431L183.479 33.752C184.423 32.344 185.759 31.64 187.487 31.64C189.215 31.64 190.519 32.216 191.399 33.368C192.295 34.52 192.743 35.976 192.743 37.736ZM189.143 37.856C189.143 37.2 189.063 36.592 188.903 36.032C188.759 35.456 188.471 34.944 188.039 34.496C187.607 34.048 187.055 33.824 186.383 33.824C185.375 33.824 184.647 34.24 184.199 35.072C183.751 35.904 183.527 36.88 183.527 38C183.527 38.48 183.567 38.944 183.647 39.392C183.727 39.824 183.855 40.256 184.031 40.688C184.223 41.12 184.503 41.464 184.871 41.72C185.239 41.976 185.679 42.104 186.191 42.104C187.231 42.104 187.983 41.68 188.447 40.832C188.911 39.984 189.143 38.992 189.143 37.856Z" fill="black"/>
<g clip-path="url(#clip0_28_320)">
<path fill-rule="evenodd" clip-rule="evenodd" d="M34.3081 22.0678C32.0258 22.0678 30.3369 24.0654 30.4125 26.2319C30.4851 28.3132 30.3908 31.0088 29.7122 33.2071C29.0315 35.4119 27.8803 36.8085 26 36.9878V39.0122C27.8803 39.1915 29.0315 40.5881 29.7122 42.7929C30.3908 44.9912 30.4851 47.6868 30.4125 49.7682C30.3369 51.9343 32.0258 53.9322 34.3085 53.9322H57.6949C59.9773 53.9322 61.6658 51.9346 61.5902 49.7682C61.5176 47.6868 61.6119 44.9912 62.2905 42.7929C62.9715 40.5881 64.1197 39.1915 66 39.0122V36.9878C64.1197 36.8085 62.9715 35.4119 62.2905 33.2071C61.6119 31.0092 61.5176 28.3132 61.5902 26.2319C61.6658 24.0658 59.9773 22.0678 57.6949 22.0678H34.3078H34.3081ZM53.1186 41.6824C53.1186 44.6654 50.8936 46.4746 47.201 46.4746H40.9153C40.7354 46.4746 40.563 46.4032 40.4359 46.276C40.3087 46.1489 40.2373 45.9764 40.2373 45.7966V30.2034C40.2373 30.0236 40.3087 29.8512 40.4359 29.724C40.563 29.5969 40.7354 29.5254 40.9153 29.5254H47.1651C50.2441 29.5254 52.2647 31.1932 52.2647 33.7539C52.2647 35.5512 50.9054 37.1604 49.1736 37.442V37.5359C51.5312 37.7946 53.1186 39.4271 53.1186 41.6824ZM46.5156 31.6746H42.9315V36.737H45.9502C48.2837 36.737 49.5705 35.7973 49.5705 34.1176C49.5705 32.5437 48.4641 31.6746 46.5156 31.6746ZM42.9315 38.7458V44.3248H46.6475C49.0769 44.3248 50.3641 43.3498 50.3641 41.5176C50.3641 39.6851 49.041 38.7454 46.4912 38.7454L42.9315 38.7458Z" fill="black"/>
</g>
</g>
<defs>
<clipPath id="clip0_28_320">
<rect width="40" height="32" fill="white" transform="translate(26 22)"/>
</clipPath>
</defs>
</svg>
