<svg width="219" height="76" viewBox="0 0 219 76" fill="none" xmlns="http://www.w3.org/2000/svg">
<mask id="mask0_28_301" style="mask-type:alpha" maskUnits="userSpaceOnUse" x="0" y="0" width="219" height="76">
<rect width="219" height="76" fill="#D9D9D9"/>
</mask>
<g mask="url(#mask0_28_301)">
<g clip-path="url(#clip0_28_301)">
<path d="M58.6537 41.6191C60.6525 41.6191 62.2728 39.9988 62.2728 38C62.2728 36.0013 60.6525 34.381 58.6537 34.381C56.655 34.381 55.0347 36.0013 55.0347 38C55.0347 39.9988 56.655 41.6191 58.6537 41.6191Z" fill="black"/>
<path d="M58.6537 46.1428C68.6474 46.1428 76.7489 42.4971 76.7489 38C76.7489 33.5028 68.6474 29.8571 58.6537 29.8571C48.66 29.8571 40.5585 33.5028 40.5585 38C40.5585 42.4971 48.66 46.1428 58.6537 46.1428Z" stroke="black" stroke-width="1.90476"/>
<path d="M51.6017 42.0714C56.5986 50.7262 63.8066 55.9195 67.7013 53.6709C71.5959 51.4223 70.7024 42.5834 65.7056 33.9286C60.7087 25.2737 53.5007 20.0805 49.606 22.3291C45.7114 24.5776 46.6049 33.4166 51.6017 42.0714Z" stroke="black" stroke-width="1.90476"/>
<path d="M51.6018 33.9286C46.605 42.5834 45.7115 51.4224 49.6061 53.671C53.5008 55.9195 60.7088 50.7263 65.7057 42.0714C70.7025 33.4166 71.596 24.5777 67.7014 22.3291C63.8067 20.0805 56.5987 25.2738 51.6018 33.9286Z" stroke="black" stroke-width="1.90476"/>
</g>
<path d="M104.284 43.7H100.545C100.378 43.1984 100.233 42.4992 100.112 41.6024C100.081 41.3896 100.051 41.1616 100.02 40.9184C100.005 40.6752 99.9824 40.4168 99.952 40.1432C99.9368 39.8544 99.9216 39.6264 99.9064 39.4592C99.8 38.3952 99.572 37.6808 99.2224 37.316C98.888 36.936 98.204 36.746 97.1704 36.746H94.5028V43.7H90.946V27.2156H97.2616C99.0096 27.2156 100.324 27.398 101.206 27.7628C102.969 28.5076 103.851 29.716 103.851 31.388C103.851 33.5616 102.612 34.8916 100.134 35.378V35.4008C101.077 35.4616 101.776 35.682 102.232 36.062C102.703 36.4268 103.038 37.0424 103.235 37.9088C103.266 38.0456 103.296 38.2052 103.326 38.3876C103.357 38.57 103.387 38.7752 103.418 39.0032C103.448 39.2312 103.471 39.4136 103.486 39.5504C103.516 39.748 103.554 40.09 103.6 40.5764C103.646 41.0628 103.684 41.4428 103.714 41.7164C103.76 41.9748 103.828 42.294 103.919 42.674C104.026 43.054 104.147 43.396 104.284 43.7ZM100.362 31.9808C100.362 30.476 99.1692 29.7236 96.7828 29.7236H94.5028V34.3292H96.532C97.064 34.3292 97.5124 34.3064 97.8772 34.2608C98.242 34.2152 98.6372 34.124 99.0628 33.9872C99.4884 33.8504 99.8076 33.6148 100.02 33.2804C100.248 32.9308 100.362 32.4976 100.362 31.9808Z" fill="black"/>
<path d="M117.599 38.5928H109.3C109.284 39.5504 109.49 40.356 109.915 41.0096C110.356 41.648 111.032 41.9672 111.944 41.9672C113.297 41.9672 114.065 41.2984 114.247 39.9608H117.485C117.287 41.3592 116.679 42.3776 115.661 43.016C114.642 43.6392 113.388 43.9508 111.899 43.9508C110.044 43.9508 108.608 43.4492 107.59 42.446C106.571 41.4276 106.062 39.9912 106.062 38.1368C106.062 36.176 106.571 34.6484 107.59 33.554C108.608 32.4444 110.082 31.8896 112.013 31.8896C113.183 31.8896 114.217 32.1404 115.114 32.642C116.01 33.1436 116.672 33.9112 117.097 34.9448C117.432 35.72 117.599 36.936 117.599 38.5928ZM114.384 36.6776C114.384 35.796 114.179 35.1044 113.768 34.6028C113.358 34.1012 112.765 33.8504 111.99 33.8504C111.184 33.8504 110.546 34.1164 110.075 34.6484C109.604 35.1652 109.368 35.8416 109.368 36.6776H114.384Z" fill="black"/>
<path d="M130.3 43.7H127.154C127.002 43.244 126.911 42.7196 126.88 42.1268C126.424 42.7956 125.907 43.2668 125.33 43.5404C124.752 43.7988 124.045 43.928 123.209 43.928C122.024 43.928 121.059 43.6316 120.314 43.0388C119.569 42.446 119.197 41.572 119.197 40.4168C119.197 39.8392 119.295 39.33 119.493 38.8892C119.706 38.4484 119.995 38.0912 120.359 37.8176C120.739 37.544 121.135 37.316 121.545 37.1336C121.971 36.9512 122.457 36.822 123.004 36.746C123.567 36.6548 124.061 36.594 124.486 36.5636C124.927 36.5332 125.413 36.518 125.945 36.518H126.88V36.0848C126.88 34.4888 126.303 33.6908 125.147 33.6908C123.962 33.6908 123.369 34.2912 123.369 35.492H119.972C119.987 34.8232 120.139 34.2456 120.428 33.7592C120.732 33.2576 121.142 32.8776 121.659 32.6192C122.176 32.3456 122.715 32.1556 123.278 32.0492C123.84 31.9276 124.448 31.8668 125.102 31.8668C126.819 31.8668 128.081 32.1708 128.887 32.7788C129.707 33.3868 130.118 34.5724 130.118 36.3356V39.7556C130.118 41.4884 130.179 42.8032 130.3 43.7ZM126.88 38.342V38.1368C126.774 38.1368 126.629 38.1368 126.447 38.1368C126.265 38.1216 126.12 38.114 126.014 38.114C125.436 38.114 124.912 38.1596 124.441 38.2508C123.969 38.342 123.521 38.5548 123.095 38.8892C122.685 39.2236 122.48 39.672 122.48 40.2344C122.48 40.7512 122.662 41.1692 123.027 41.4884C123.392 41.7924 123.833 41.9444 124.349 41.9444C126.037 41.9444 126.88 40.7436 126.88 38.342Z" fill="black"/>
<path d="M143.961 39.5732C143.961 41.0172 143.414 42.1116 142.319 42.8564C141.225 43.6012 139.925 43.9736 138.42 43.9736C136.536 43.9736 135.069 43.4568 134.02 42.4232C132.971 41.3896 132.447 39.9304 132.447 38.0456C132.447 36.1456 132.986 34.6408 134.066 33.5312C135.145 32.4216 136.634 31.8668 138.534 31.8668C140.054 31.8668 141.286 32.2164 142.228 32.9156C143.186 33.6148 143.733 34.694 143.87 36.1532H140.564C140.533 35.454 140.351 34.8992 140.016 34.4888C139.682 34.0632 139.18 33.8504 138.512 33.8504C136.779 33.8504 135.912 35.1956 135.912 37.886C135.912 40.6068 136.756 41.9672 138.443 41.9672C139.811 41.9672 140.518 41.1312 140.564 39.4592H143.961V39.5732Z" fill="black"/>
<path d="M152.885 34.3748H150.172V39.6188C150.172 40.3788 150.263 40.9032 150.446 41.192C150.628 41.4656 151.077 41.6024 151.791 41.6024C151.928 41.6024 152.11 41.5872 152.338 41.5568C152.581 41.5264 152.756 41.5112 152.863 41.5112V43.6772C152.011 43.7988 151.221 43.8596 150.491 43.8596C149.26 43.8596 148.356 43.6468 147.778 43.2212C147.216 42.7804 146.935 41.9672 146.935 40.7816V34.3748H144.723V32.186H146.935V30.2708L150.172 28.9484V32.186H152.885V34.3748Z" fill="black"/>
<path d="M165.498 29.8604H162.032V27.2156H165.498V29.8604ZM165.429 44.7488C165.429 46.0712 165.133 46.9528 164.54 47.3936C163.947 47.8496 162.959 48.0776 161.576 48.0776C161.272 48.0776 160.786 48.0624 160.117 48.032V45.752C160.36 45.7824 160.535 45.7976 160.641 45.7976C161.614 45.7976 162.101 45.1896 162.101 43.9736V32.186H165.429V44.7488Z" fill="black"/>
<path d="M178.496 40.2116C178.496 40.926 178.336 41.5416 178.017 42.0584C177.698 42.5752 177.257 42.9704 176.695 43.244C176.147 43.5024 175.577 43.6924 174.985 43.814C174.392 43.9356 173.761 43.9964 173.092 43.9964C169.657 43.9964 167.939 42.674 167.939 40.0292H171.291C171.337 41.3972 171.99 42.0812 173.252 42.0812C173.753 42.0812 174.194 41.9444 174.574 41.6708C174.954 41.3972 175.144 41.0248 175.144 40.5536C175.144 39.8088 174.415 39.2692 172.955 38.9348L171.701 38.6384C171.2 38.5168 170.774 38.3876 170.425 38.2508C170.075 38.114 169.718 37.924 169.353 37.6808C169.003 37.4376 168.73 37.126 168.532 36.746C168.35 36.366 168.259 35.9176 168.259 35.4008C168.259 34.7472 168.403 34.1848 168.692 33.7136C168.996 33.2272 169.399 32.8624 169.9 32.6192C170.417 32.376 170.941 32.2012 171.473 32.0948C172.021 31.9732 172.591 31.9124 173.183 31.9124C174.597 31.9124 175.76 32.2012 176.672 32.7788C177.584 33.3564 178.078 34.3064 178.154 35.6288H174.893C174.863 35.0664 174.696 34.618 174.392 34.2836C174.103 33.9492 173.685 33.782 173.138 33.782C172.682 33.782 172.279 33.8884 171.929 34.1012C171.58 34.314 171.405 34.6332 171.405 35.0588C171.405 35.4692 171.58 35.7884 171.929 36.0164C172.294 36.2444 172.857 36.442 173.617 36.6092L174.916 36.9056C176.011 37.164 176.877 37.5364 177.515 38.0228C178.169 38.494 178.496 39.2236 178.496 40.2116Z" fill="black"/>
</g>
<defs>
<clipPath id="clip0_28_301">
<rect width="38" height="38" fill="white" transform="translate(39.6537 19)"/>
</clipPath>
</defs>
</svg>
