<svg width="219" height="76" viewBox="0 0 219 76" fill="none" xmlns="http://www.w3.org/2000/svg">
<mask id="mask0_28_311" style="mask-type:alpha" maskUnits="userSpaceOnUse" x="0" y="0" width="219" height="76">
<rect width="219" height="76" fill="#D9D9D9"/>
</mask>
<g mask="url(#mask0_28_311)">
</g>
<g clip-path="url(#clip0_28_311)">
<mask id="mask1_28_311" style="mask-type:luminance" maskUnits="userSpaceOnUse" x="46" y="19" width="126" height="38">
<path d="M172 19H46V56.7045H172V19Z" fill="white"/>
</mask>
<g mask="url(#mask1_28_311)">
<path d="M156.891 56.4086C156.571 56.4069 156.257 56.3235 155.979 56.1664L153.09 54.4288C152.655 54.1866 152.873 54.0987 153.003 54.055C153.589 53.8569 153.698 53.8127 154.306 53.4612C154.371 53.4171 154.458 53.4389 154.523 53.4831L156.738 54.825C156.825 54.8687 156.934 54.8687 156.999 54.825L165.665 49.7434C165.751 49.6997 165.795 49.6118 165.795 49.5016V39.3618C165.795 39.2516 165.751 39.1637 165.665 39.1195L156.999 34.0608C156.912 34.0166 156.804 34.0166 156.738 34.0608L148.073 39.1195C147.986 39.1637 147.943 39.2735 147.943 39.3618V49.5016C147.943 49.59 147.986 49.6997 148.073 49.7439L150.44 51.1295C151.722 51.7897 152.525 51.0193 152.525 50.2498V40.2415C152.525 40.1095 152.634 39.9774 152.786 39.9774H153.894C154.024 39.9774 154.154 40.0876 154.154 40.2415V50.2498C154.154 51.9873 153.22 52.9991 151.591 52.9991C151.092 52.9991 150.701 52.9991 149.593 52.4495L147.313 51.1295C147.035 50.9654 146.804 50.7308 146.644 50.4491C146.484 50.1674 146.4 49.8485 146.401 49.524V39.3832C146.401 38.7229 146.749 38.1073 147.313 37.7777L155.979 32.6966C156.521 32.3883 157.26 32.3883 157.803 32.6966L166.468 37.7772C166.746 37.9414 166.977 38.176 167.137 38.4578C167.297 38.7396 167.381 39.0586 167.38 39.3832V49.5235C167.38 50.1837 167.033 50.7993 166.468 51.1295L157.803 56.2105C157.542 56.3207 157.216 56.4086 156.891 56.4086Z" fill="black"/>
<path d="M159.584 49.4356C155.783 49.4356 155.001 47.6757 155.001 46.18C155.001 46.0484 155.109 45.9163 155.261 45.9163H156.391C156.521 45.9163 156.63 46.0042 156.63 46.1363C156.804 47.3019 157.303 47.8738 159.605 47.8738C161.43 47.8738 162.212 47.4558 162.212 46.4664C162.212 45.8945 161.994 45.4765 159.149 45.1905C156.782 44.9483 155.305 44.4206 155.305 42.5068C155.305 40.7255 156.782 39.6691 159.257 39.6691C162.038 39.6691 163.406 40.6372 163.58 42.749C163.578 42.8199 163.555 42.8886 163.515 42.9466C163.471 42.9908 163.406 43.035 163.34 43.035H162.189C162.133 43.0328 162.08 43.0123 162.037 42.9765C161.994 42.9407 161.963 42.8917 161.951 42.8369C161.69 41.6271 161.016 41.2314 159.236 41.2314C157.238 41.2314 156.999 41.9349 156.999 42.4631C156.999 43.1005 157.281 43.2991 159.974 43.6506C162.645 44.0026 163.905 44.5084 163.905 46.3999C163.905 48.336 162.32 49.4356 159.584 49.4356ZM172.094 38.7894C172.094 39.7133 171.334 40.4833 170.421 40.4833C169.976 40.4817 169.55 40.3023 169.237 39.9847C168.923 39.6671 168.748 39.2372 168.749 38.7894C168.748 38.3418 168.923 37.912 169.237 37.5945C169.55 37.277 169.976 37.0977 170.421 37.0961C171.312 37.0961 172.094 37.8437 172.094 38.7894ZM169.01 38.7894C169.01 39.5813 169.64 40.2192 170.399 40.2192C171.182 40.2192 171.812 39.5589 171.812 38.7894C171.812 37.9976 171.182 37.382 170.399 37.382C170.03 37.3859 169.678 37.5357 169.418 37.7991C169.158 38.0624 169.011 38.4182 169.01 38.7894ZM169.792 37.8437H170.444C170.661 37.8437 171.095 37.8437 171.095 38.3496C171.095 38.7011 170.877 38.7676 170.747 38.8118C171.008 38.8336 171.029 39.0094 171.051 39.2516C171.073 39.4055 171.095 39.6696 171.138 39.7575H170.747C170.747 39.6691 170.682 39.1856 170.682 39.1637C170.661 39.0535 170.617 39.0094 170.487 39.0094H170.161V39.7789H169.792V37.8437ZM170.139 38.6797H170.421C170.661 38.6797 170.704 38.504 170.704 38.4156C170.704 38.1515 170.53 38.1515 170.421 38.1515H170.118V38.6797H170.139Z" fill="black"/>
<path fill-rule="evenodd" clip-rule="evenodd" d="M66.6102 38.9283C66.6102 38.5321 66.3931 38.1588 66.0454 37.9602L56.8587 32.5718C56.7067 32.4839 56.5331 32.4398 56.3594 32.4179H56.2726C56.0989 32.4179 55.9252 32.4839 55.7728 32.5718L46.5649 37.9393C46.3922 38.0389 46.2488 38.1829 46.1496 38.3566C46.0503 38.5303 45.9987 38.7274 46 38.9278L46.0217 53.3573C46.0217 53.5549 46.1303 53.753 46.3039 53.8409C46.4776 53.9511 46.6951 53.9511 46.8466 53.8409L52.3198 50.6736C52.4902 50.5765 52.6321 50.4359 52.7312 50.2661C52.8304 50.0962 52.8833 49.903 52.8847 49.706V42.9534C52.8847 42.5577 53.1018 42.1839 53.4491 41.9858L55.7728 40.6221C55.9425 40.5172 56.1386 40.4636 56.3377 40.4677C56.5331 40.4677 56.7284 40.5119 56.8804 40.6221L59.2045 41.9854C59.3749 42.0826 59.5167 42.2232 59.6158 42.3932C59.7149 42.5631 59.7677 42.7564 59.7689 42.9534V49.7065C59.7689 50.1022 59.986 50.476 60.3338 50.6741L65.7631 53.8414C65.9368 53.9516 66.1539 53.9516 66.328 53.8414C66.5017 53.7535 66.6102 53.5554 66.6102 53.3578V38.9283ZM110.871 19.0662C110.697 18.9783 110.48 18.9783 110.328 19.0662C110.154 19.1759 110.046 19.3521 110.046 19.5502V33.8477C110.045 33.918 110.026 33.987 109.992 34.0484C109.958 34.1098 109.909 34.1616 109.85 34.1992C109.79 34.2314 109.723 34.2483 109.655 34.2483C109.586 34.2483 109.519 34.2314 109.459 34.1992L107.157 32.8573C106.989 32.7601 106.798 32.7089 106.603 32.7089C106.409 32.7089 106.218 32.7601 106.05 32.8573L96.8413 38.2471C96.671 38.3443 96.5292 38.4849 96.4301 38.6547C96.3311 38.8246 96.2782 39.0177 96.2769 39.2147V49.9701C96.2769 50.3663 96.4939 50.7401 96.8413 50.9382L106.05 56.327C106.218 56.4243 106.409 56.4755 106.603 56.4755C106.798 56.4755 106.989 56.4243 107.157 56.327L116.366 50.9382C116.536 50.841 116.678 50.7003 116.777 50.5304C116.876 50.3604 116.929 50.1672 116.93 49.9701V23.1573C116.93 22.7393 116.713 22.3655 116.366 22.1674L110.871 19.0662ZM110.024 46.429C110.024 46.5392 109.981 46.6271 109.894 46.6712L106.744 48.519C106.7 48.5406 106.652 48.5519 106.603 48.5519C106.554 48.5519 106.506 48.5406 106.462 48.519L103.313 46.6712C103.226 46.6271 103.183 46.5169 103.183 46.429V42.7335C103.183 42.6238 103.226 42.5359 103.313 42.4917L106.462 40.644C106.506 40.6223 106.554 40.6111 106.603 40.6111C106.652 40.6111 106.7 40.6223 106.744 40.644L109.894 42.4917C109.981 42.5359 110.024 42.6456 110.024 42.734V46.429ZM141.514 42.6456C141.861 42.4475 142.057 42.0737 142.057 41.6776V39.0603C142.057 38.6642 141.84 38.2908 141.514 38.0927L132.37 32.7252C132.202 32.628 132.011 32.5768 131.817 32.5768C131.622 32.5768 131.431 32.628 131.263 32.7252L122.055 38.1146C121.885 38.2117 121.743 38.3522 121.644 38.5221C121.544 38.692 121.491 38.8852 121.49 39.0822V49.8385C121.49 50.2342 121.707 50.608 122.055 50.8061L131.198 56.0853C131.546 56.2829 131.958 56.2829 132.284 56.0853L137.822 52.9617C137.996 52.8738 138.104 52.6757 138.104 52.4776C138.104 52.2796 137.996 52.082 137.822 51.9941L128.57 46.6047C128.396 46.495 128.288 46.3188 128.288 46.1212V42.7558C128.288 42.5577 128.396 42.3597 128.57 42.2713L131.459 40.6003C131.543 40.5466 131.641 40.5181 131.741 40.5181C131.841 40.5181 131.939 40.5466 132.023 40.6003L134.912 42.2718C135.085 42.3815 135.194 42.5577 135.194 42.7558V45.3954C135.194 45.593 135.302 45.7911 135.477 45.8789C135.65 45.9891 135.867 45.9891 136.041 45.8789L141.514 42.6456Z" fill="black"/>
<path fill-rule="evenodd" clip-rule="evenodd" d="M131.676 42.1401C131.708 42.1187 131.746 42.1074 131.785 42.1074C131.823 42.1074 131.861 42.1187 131.893 42.1401L133.652 43.1737C133.717 43.2174 133.761 43.2834 133.761 43.3718V45.439C133.761 45.4785 133.751 45.5175 133.732 45.5522C133.713 45.5868 133.686 45.616 133.652 45.637L131.893 46.6711C131.861 46.6925 131.823 46.7038 131.785 46.7038C131.746 46.7038 131.708 46.6925 131.676 46.6711L129.917 45.637C129.884 45.616 129.856 45.5868 129.837 45.5522C129.818 45.5175 129.808 45.4785 129.808 45.439V43.3722C129.808 43.2844 129.852 43.2179 129.917 43.1742L131.676 42.1401Z" fill="black"/>
<path d="M82.0073 32.7964C81.8386 32.699 81.6476 32.6478 81.4532 32.6478C81.2588 32.6478 81.0678 32.699 80.8992 32.7964L71.7564 38.1411C71.4086 38.3391 71.2133 38.713 71.2133 39.1091V49.8208C71.2133 50.217 71.4303 50.5908 71.756 50.7889L80.8992 56.1341C81.0678 56.2314 81.2588 56.2826 81.4532 56.2826C81.6476 56.2826 81.8386 56.2314 82.0073 56.1341L91.15 50.7889C91.4978 50.5908 91.6927 50.217 91.6927 49.8208V39.1091C91.6927 38.713 91.4757 38.3396 91.15 38.1411L82.0073 32.7964Z" fill="black"/>
<mask id="mask2_28_311" style="mask-type:luminance" maskUnits="userSpaceOnUse" x="71" y="32" width="21" height="25">
<path d="M82.0073 32.7964C81.8386 32.699 81.6476 32.6478 81.4532 32.6478C81.2588 32.6478 81.0678 32.699 80.8992 32.7964L71.7564 38.1411C71.4086 38.3391 71.2133 38.713 71.2133 39.1091V49.8208C71.2133 50.217 71.4303 50.5908 71.756 50.7889L80.8992 56.1341C81.0678 56.2314 81.2588 56.2826 81.4532 56.2826C81.6476 56.2826 81.8386 56.2314 82.0073 56.1341L91.15 50.7889C91.4978 50.5908 91.6927 50.217 91.6927 49.8208V39.1091C91.6927 38.713 91.4757 38.3396 91.15 38.1411L82.0073 32.7964Z" fill="white"/>
</mask>
<g mask="url(#mask2_28_311)">
<path d="M81.4532 32.101L91.6021 38.2736L81.4536 56.858L71.2854 50.6744L81.4532 32.101Z" fill="black"/>
</g>
<mask id="mask3_28_311" style="mask-type:luminance" maskUnits="userSpaceOnUse" x="71" y="32" width="21" height="25">
<path d="M82.0073 32.7964C81.8386 32.699 81.6476 32.6478 81.4532 32.6478C81.2588 32.6478 81.0678 32.699 80.8992 32.7964L71.7564 38.1411C71.4086 38.3391 71.2133 38.713 71.2133 39.1091V49.8208C71.2133 50.217 71.4303 50.5908 71.756 50.7889L80.8992 56.1341C81.0678 56.2314 81.2588 56.2826 81.4532 56.2826C81.6476 56.2826 81.8386 56.2314 82.0073 56.1341L91.15 50.7889C91.4978 50.5908 91.6927 50.217 91.6927 49.8208V39.1091C91.6927 38.713 91.4757 38.3396 91.15 38.1411L82.0073 32.7964Z" fill="white"/>
</mask>
<g mask="url(#mask3_28_311)">
<path d="M81.4532 32.101L71.2854 38.2736L81.4532 56.858L91.6021 50.6744L81.4532 32.101Z" fill="black"/>
</g>
</g>
</g>
<defs>
<clipPath id="clip0_28_311">
<rect width="126" height="38" fill="white" transform="translate(46 19)"/>
</clipPath>
</defs>
</svg>
