<svg width="219" height="76" viewBox="0 0 219 76" fill="none" xmlns="http://www.w3.org/2000/svg">
<mask id="mask0_28_303" style="mask-type:alpha" maskUnits="userSpaceOnUse" x="0" y="0" width="219" height="76">
<rect width="219" height="76" fill="#D9D9D9"/>
</mask>
<g mask="url(#mask0_28_303)">
<g clip-path="url(#clip0_28_303)">
<path d="M28 41.8095C30.104 41.8095 31.8095 40.104 31.8095 38C31.8095 35.8961 30.104 34.1905 28 34.1905C25.8961 34.1905 24.1905 35.8961 24.1905 38C24.1905 40.104 25.8961 41.8095 28 41.8095Z" fill="black"/>
<path d="M28 46.5714C38.5197 46.5714 47.0476 42.7339 47.0476 38C47.0476 33.2661 38.5197 29.4286 28 29.4286C17.4803 29.4286 8.95239 33.2661 8.95239 38C8.95239 42.7339 17.4803 46.5714 28 46.5714Z" stroke="black" stroke-width="1.90476"/>
<path d="M20.577 42.2857C25.8368 51.3961 33.4242 56.8627 37.5238 54.4957C41.6235 52.1288 40.683 42.8246 35.4231 33.7143C30.1632 24.604 22.5759 19.1373 18.4762 21.5043C14.3766 23.8712 15.3171 33.1754 20.577 42.2857Z" stroke="black" stroke-width="1.90476"/>
<path d="M20.5769 33.7143C15.3171 42.8246 14.3766 52.1288 18.4762 54.4957C22.5759 56.8626 30.1632 51.396 35.4231 42.2857C40.6829 33.1754 41.6235 23.8712 37.5238 21.5043C33.4242 19.1373 25.8368 24.6039 20.5769 33.7143Z" stroke="black" stroke-width="1.90476"/>
</g>
<path d="M76.032 44H72.096C71.92 43.472 71.768 42.736 71.64 41.792C71.608 41.568 71.576 41.328 71.544 41.072C71.528 40.816 71.504 40.544 71.472 40.256C71.456 39.952 71.44 39.712 71.424 39.536C71.312 38.416 71.072 37.664 70.704 37.28C70.352 36.88 69.632 36.68 68.544 36.68H65.736V44H61.992V26.648H68.64C70.48 26.648 71.864 26.84 72.792 27.224C74.648 28.008 75.576 29.28 75.576 31.04C75.576 33.328 74.272 34.728 71.664 35.24V35.264C72.656 35.328 73.392 35.56 73.872 35.96C74.368 36.344 74.72 36.992 74.928 37.904C74.96 38.048 74.992 38.216 75.024 38.408C75.056 38.6 75.088 38.816 75.12 39.056C75.152 39.296 75.176 39.488 75.192 39.632C75.224 39.84 75.264 40.2 75.312 40.712C75.36 41.224 75.4 41.624 75.432 41.912C75.48 42.184 75.552 42.52 75.648 42.92C75.76 43.32 75.888 43.68 76.032 44ZM71.904 31.664C71.904 30.08 70.648 29.288 68.136 29.288H65.736V34.136H67.872C68.432 34.136 68.904 34.112 69.288 34.064C69.672 34.016 70.088 33.92 70.536 33.776C70.984 33.632 71.32 33.384 71.544 33.032C71.784 32.664 71.904 32.208 71.904 31.664Z" fill="black"/>
<path d="M90.0476 38.624H81.3116C81.2956 39.632 81.5116 40.48 81.9596 41.168C82.4236 41.84 83.1356 42.176 84.0956 42.176C85.5196 42.176 86.3276 41.472 86.5196 40.064H89.9276C89.7196 41.536 89.0796 42.608 88.0076 43.28C86.9356 43.936 85.6156 44.264 84.0476 44.264C82.0956 44.264 80.5836 43.736 79.5116 42.68C78.4396 41.608 77.9036 40.096 77.9036 38.144C77.9036 36.08 78.4396 34.472 79.5116 33.32C80.5836 32.152 82.1356 31.568 84.1676 31.568C85.3996 31.568 86.4876 31.832 87.4316 32.36C88.3756 32.888 89.0716 33.696 89.5196 34.784C89.8716 35.6 90.0476 36.88 90.0476 38.624ZM86.6636 36.608C86.6636 35.68 86.4476 34.952 86.0156 34.424C85.5836 33.896 84.9596 33.632 84.1436 33.632C83.2956 33.632 82.6236 33.912 82.1276 34.472C81.6316 35.016 81.3836 35.728 81.3836 36.608H86.6636Z" fill="black"/>
<path d="M103.418 44H100.106C99.9455 43.52 99.8495 42.968 99.8175 42.344C99.3375 43.048 98.7935 43.544 98.1855 43.832C97.5775 44.104 96.8335 44.24 95.9535 44.24C94.7055 44.24 93.6895 43.928 92.9055 43.304C92.1215 42.68 91.7295 41.76 91.7295 40.544C91.7295 39.936 91.8335 39.4 92.0415 38.936C92.2655 38.472 92.5695 38.096 92.9535 37.808C93.3535 37.52 93.7695 37.28 94.2015 37.088C94.6495 36.896 95.1615 36.76 95.7375 36.68C96.3295 36.584 96.8495 36.52 97.2975 36.488C97.7615 36.456 98.2735 36.44 98.8335 36.44H99.8175V35.984C99.8175 34.304 99.2095 33.464 97.9935 33.464C96.7455 33.464 96.1215 34.096 96.1215 35.36H92.5455C92.5615 34.656 92.7215 34.048 93.0255 33.536C93.3455 33.008 93.7775 32.608 94.3215 32.336C94.8655 32.048 95.4335 31.848 96.0255 31.736C96.6175 31.608 97.2575 31.544 97.9455 31.544C99.7535 31.544 101.082 31.864 101.93 32.504C102.794 33.144 103.226 34.392 103.226 36.248V39.848C103.226 41.672 103.29 43.056 103.418 44ZM99.8175 38.36V38.144C99.7055 38.144 99.5535 38.144 99.3615 38.144C99.1695 38.128 99.0175 38.12 98.9055 38.12C98.2975 38.12 97.7455 38.168 97.2495 38.264C96.7535 38.36 96.2815 38.584 95.8335 38.936C95.4015 39.288 95.1855 39.76 95.1855 40.352C95.1855 40.896 95.3775 41.336 95.7615 41.672C96.1455 41.992 96.6095 42.152 97.1535 42.152C98.9295 42.152 99.8175 40.888 99.8175 38.36Z" fill="black"/>
<path d="M117.797 39.656C117.797 41.176 117.221 42.328 116.069 43.112C114.917 43.896 113.549 44.288 111.965 44.288C109.981 44.288 108.437 43.744 107.333 42.656C106.229 41.568 105.677 40.032 105.677 38.048C105.677 36.048 106.245 34.464 107.381 33.296C108.517 32.128 110.085 31.544 112.085 31.544C113.685 31.544 114.981 31.912 115.973 32.648C116.981 33.384 117.557 34.52 117.701 36.056H114.221C114.189 35.32 113.997 34.736 113.645 34.304C113.293 33.856 112.765 33.632 112.061 33.632C110.237 33.632 109.325 35.048 109.325 37.88C109.325 40.744 110.213 42.176 111.989 42.176C113.429 42.176 114.173 41.296 114.221 39.536H117.797V39.656Z" fill="black"/>
<path d="M127.191 34.184H124.335V39.704C124.335 40.504 124.431 41.056 124.623 41.36C124.815 41.648 125.287 41.792 126.039 41.792C126.183 41.792 126.375 41.776 126.615 41.744C126.871 41.712 127.055 41.696 127.167 41.696V43.976C126.271 44.104 125.439 44.168 124.671 44.168C123.375 44.168 122.423 43.944 121.815 43.496C121.223 43.032 120.927 42.176 120.927 40.928V34.184H118.599V31.88H120.927V29.864L124.335 28.472V31.88H127.191V34.184Z" fill="black"/>
<path d="M152.372 44H147.092L140.42 29.696V44H137.18V26.648H142.46L149.132 40.976V26.648H152.372V44Z" fill="black"/>
<path d="M166.839 44H163.527C163.367 43.52 163.271 42.968 163.239 42.344C162.759 43.048 162.215 43.544 161.607 43.832C160.999 44.104 160.255 44.24 159.375 44.24C158.127 44.24 157.111 43.928 156.327 43.304C155.543 42.68 155.151 41.76 155.151 40.544C155.151 39.936 155.255 39.4 155.463 38.936C155.687 38.472 155.991 38.096 156.375 37.808C156.775 37.52 157.191 37.28 157.623 37.088C158.071 36.896 158.583 36.76 159.159 36.68C159.751 36.584 160.271 36.52 160.719 36.488C161.183 36.456 161.695 36.44 162.255 36.44H163.239V35.984C163.239 34.304 162.631 33.464 161.415 33.464C160.167 33.464 159.543 34.096 159.543 35.36H155.967C155.983 34.656 156.143 34.048 156.447 33.536C156.767 33.008 157.199 32.608 157.743 32.336C158.287 32.048 158.855 31.848 159.447 31.736C160.039 31.608 160.679 31.544 161.367 31.544C163.175 31.544 164.503 31.864 165.351 32.504C166.215 33.144 166.647 34.392 166.647 36.248V39.848C166.647 41.672 166.711 43.056 166.839 44ZM163.239 38.36V38.144C163.127 38.144 162.975 38.144 162.783 38.144C162.591 38.128 162.439 38.12 162.327 38.12C161.719 38.12 161.167 38.168 160.671 38.264C160.175 38.36 159.703 38.584 159.255 38.936C158.823 39.288 158.607 39.76 158.607 40.352C158.607 40.896 158.799 41.336 159.183 41.672C159.567 41.992 160.031 42.152 160.575 42.152C162.351 42.152 163.239 40.888 163.239 38.36Z" fill="black"/>
<path d="M177.043 34.184H174.187V39.704C174.187 40.504 174.283 41.056 174.475 41.36C174.667 41.648 175.139 41.792 175.891 41.792C176.035 41.792 176.227 41.776 176.467 41.744C176.723 41.712 176.907 41.696 177.019 41.696V43.976C176.123 44.104 175.291 44.168 174.523 44.168C173.227 44.168 172.275 43.944 171.667 43.496C171.075 43.032 170.779 42.176 170.779 40.928V34.184H168.451V31.88H170.779V29.864L174.187 28.472V31.88H177.043V34.184Z" fill="black"/>
<path d="M182.772 29.432H179.124V26.648H182.772V29.432ZM182.7 44H179.196V31.88H182.7V44Z" fill="black"/>
<path d="M198.014 31.904L193.142 44H189.35L184.454 31.904H188.174L191.342 41.264L194.606 31.904H198.014Z" fill="black"/>
<path d="M210.751 38.624H202.015C201.999 39.632 202.215 40.48 202.663 41.168C203.127 41.84 203.839 42.176 204.799 42.176C206.223 42.176 207.031 41.472 207.223 40.064H210.631C210.423 41.536 209.783 42.608 208.711 43.28C207.639 43.936 206.319 44.264 204.751 44.264C202.799 44.264 201.287 43.736 200.215 42.68C199.143 41.608 198.607 40.096 198.607 38.144C198.607 36.08 199.143 34.472 200.215 33.32C201.287 32.152 202.839 31.568 204.871 31.568C206.103 31.568 207.191 31.832 208.135 32.36C209.079 32.888 209.775 33.696 210.223 34.784C210.575 35.6 210.751 36.88 210.751 38.624ZM207.367 36.608C207.367 35.68 207.151 34.952 206.719 34.424C206.287 33.896 205.663 33.632 204.847 33.632C203.999 33.632 203.327 33.912 202.831 34.472C202.335 35.016 202.087 35.728 202.087 36.608H207.367Z" fill="black"/>
</g>
<defs>
<clipPath id="clip0_28_303">
<rect width="40" height="40" fill="white" transform="translate(8 18)"/>
</clipPath>
</defs>
</svg>
