<svg width="219" height="76" viewBox="0 0 219 76" fill="none" xmlns="http://www.w3.org/2000/svg">
<mask id="mask0_28_322" style="mask-type:alpha" maskUnits="userSpaceOnUse" x="0" y="0" width="219" height="76">
<rect width="219" height="76" fill="#D9D9D9"/>
</mask>
<g mask="url(#mask0_28_322)">
</g>
<g clip-path="url(#clip0_28_322)">
<path fill-rule="evenodd" clip-rule="evenodd" d="M56.773 23.917V46.963H65.111V50.939H52.333V23.917H56.773ZM80.783 35.382V32.95H84.991V50.94H80.784V48.507C80.217 49.408 79.414 50.116 78.371 50.63C77.329 51.145 76.28 51.402 75.225 51.402C73.86 51.402 72.612 51.152 71.48 50.65C70.3767 50.1689 69.3844 49.4656 68.565 48.584C67.7532 47.707 67.1122 46.6862 66.675 45.574C66.2194 44.4184 65.9896 43.1861 65.998 41.944C65.998 40.684 66.223 39.48 66.674 38.334C67.1084 37.2142 67.7499 36.1862 68.565 35.304C69.3846 34.4229 70.3769 33.7199 71.48 33.239C72.612 32.737 73.86 32.487 75.225 32.487C76.28 32.487 77.329 32.744 78.371 33.259C79.413 33.774 80.216 34.481 80.783 35.382ZM80.397 44.145C80.6562 43.4406 80.7872 42.6955 80.784 41.945C80.784 41.172 80.654 40.439 80.397 39.745C80.1558 39.0768 79.7893 38.4607 79.317 37.93C78.8456 37.4094 78.2743 36.9891 77.637 36.694C76.981 36.386 76.254 36.231 75.457 36.231C74.658 36.231 73.937 36.386 73.294 36.694C72.6647 36.9927 72.1006 37.4127 71.634 37.93C71.1633 38.458 70.8029 39.0747 70.574 39.744C70.3266 40.4509 70.2022 41.195 70.206 41.944C70.206 42.716 70.328 43.45 70.573 44.144C70.817 44.84 71.171 45.444 71.635 45.959C72.1014 46.4765 72.6655 46.8966 73.295 47.195C73.937 47.504 74.658 47.658 75.456 47.658C76.254 47.658 76.981 47.504 77.637 47.195C78.2744 46.9002 78.8458 46.4798 79.317 45.959C79.7893 45.4286 80.1558 44.8129 80.397 44.145ZM88.311 50.939V32.95H99.738V37.091H92.518V50.941H88.311V50.939ZM114.986 35.382V32.95H119.194V50.94H114.986V48.507C114.42 49.408 113.616 50.116 112.573 50.63C111.531 51.145 110.483 51.402 109.427 51.402C108.063 51.402 106.815 51.152 105.683 50.65C104.58 50.1689 103.587 49.4656 102.768 48.584C101.956 47.7071 101.314 46.6863 100.877 45.574C100.422 44.4183 100.192 43.1861 100.201 41.944C100.201 40.684 100.426 39.48 100.877 38.334C101.311 37.2142 101.952 36.1863 102.767 35.304C103.587 34.4228 104.58 33.7198 105.683 33.239C106.815 32.737 108.063 32.487 109.427 32.487C110.482 32.487 111.531 32.744 112.573 33.259C113.616 33.774 114.42 34.481 114.986 35.382ZM114.6 44.145C114.859 43.4405 114.99 42.6955 114.986 41.945C114.986 41.172 114.856 40.439 114.6 39.745C114.359 39.0768 113.992 38.4607 113.52 37.93C113.049 37.4094 112.477 36.9891 111.84 36.694C111.184 36.386 110.456 36.231 109.659 36.231C108.861 36.231 108.14 36.386 107.497 36.694C106.868 36.9927 106.304 37.4127 105.837 37.93C105.366 38.4579 105.005 39.0746 104.776 39.744C104.529 40.451 104.405 41.1951 104.409 41.944C104.409 42.716 104.53 43.45 104.776 44.144C105.02 44.84 105.374 45.444 105.837 45.959C106.303 46.4765 106.868 46.8966 107.497 47.195C108.14 47.504 108.861 47.658 109.659 47.658C110.456 47.658 111.184 47.504 111.84 47.195C112.477 46.9002 113.049 46.4798 113.52 45.959C113.992 45.4286 114.359 44.8129 114.6 44.145ZM136.063 32.95H140.325L133.42 50.94H128.13L121.224 32.95H125.486L130.775 46.726L136.063 32.95ZM149.503 32.487C155.232 32.487 159.139 37.565 158.405 43.508H144.446C144.446 45.06 146.013 48.06 149.734 48.06C152.934 48.06 155.079 45.245 155.08 45.243L157.923 47.443C155.381 50.156 153.3 51.403 150.041 51.403C144.218 51.403 140.271 47.719 140.271 41.945C140.271 36.722 144.351 32.487 149.503 32.487ZM144.457 40.381H154.541C154.51 40.035 153.963 35.829 149.469 35.829C144.974 35.829 144.489 40.035 144.457 40.381ZM161.145 50.939V23.917H165.353V50.939H161.145Z" fill="black"/>
</g>
<defs>
<clipPath id="clip0_28_322">
<rect width="114" height="29" fill="white" transform="translate(52 23)"/>
</clipPath>
</defs>
</svg>
