<svg width="219" height="76" viewBox="0 0 219 76" fill="none" xmlns="http://www.w3.org/2000/svg">
<mask id="mask0_28_306" style="mask-type:alpha" maskUnits="userSpaceOnUse" x="0" y="0" width="219" height="76">
<rect width="219" height="76" fill="#D9D9D9"/>
</mask>
<g mask="url(#mask0_28_306)">
<path d="M91.9679 44H79.9919V26.648H91.7279V29.336H83.6879V33.848H91.2959V36.512H83.6879V41.312H91.9679V44Z" fill="black"/>
<path d="M98.1376 44H94.6336V26.648H98.1376V44Z" fill="black"/>
<path d="M112.876 38.624H104.14C104.124 39.632 104.34 40.48 104.788 41.168C105.252 41.84 105.964 42.176 106.924 42.176C108.348 42.176 109.156 41.472 109.348 40.064H112.756C112.548 41.536 111.908 42.608 110.836 43.28C109.764 43.936 108.444 44.264 106.876 44.264C104.924 44.264 103.412 43.736 102.34 42.68C101.268 41.608 100.732 40.096 100.732 38.144C100.732 36.08 101.268 34.472 102.34 33.32C103.412 32.152 104.964 31.568 106.996 31.568C108.228 31.568 109.316 31.832 110.26 32.36C111.204 32.888 111.9 33.696 112.348 34.784C112.7 35.6 112.876 36.88 112.876 38.624ZM109.492 36.608C109.492 35.68 109.276 34.952 108.844 34.424C108.412 33.896 107.788 33.632 106.972 33.632C106.124 33.632 105.452 33.912 104.956 34.472C104.46 35.016 104.212 35.728 104.212 36.608H109.492Z" fill="black"/>
<path d="M126.774 39.656C126.774 41.176 126.198 42.328 125.046 43.112C123.894 43.896 122.526 44.288 120.942 44.288C118.958 44.288 117.414 43.744 116.31 42.656C115.206 41.568 114.654 40.032 114.654 38.048C114.654 36.048 115.222 34.464 116.358 33.296C117.494 32.128 119.062 31.544 121.062 31.544C122.662 31.544 123.958 31.912 124.95 32.648C125.958 33.384 126.534 34.52 126.678 36.056H123.198C123.166 35.32 122.974 34.736 122.622 34.304C122.27 33.856 121.742 33.632 121.038 33.632C119.214 33.632 118.302 35.048 118.302 37.88C118.302 40.744 119.19 42.176 120.966 42.176C122.406 42.176 123.15 41.296 123.198 39.536H126.774V39.656Z" fill="black"/>
<path d="M136.168 34.184H133.312V39.704C133.312 40.504 133.408 41.056 133.6 41.36C133.792 41.648 134.264 41.792 135.016 41.792C135.16 41.792 135.352 41.776 135.592 41.744C135.848 41.712 136.032 41.696 136.144 41.696V43.976C135.248 44.104 134.416 44.168 133.648 44.168C132.352 44.168 131.4 43.944 130.792 43.496C130.2 43.032 129.904 42.176 129.904 40.928V34.184H127.576V31.88H129.904V29.864L133.312 28.472V31.88H136.168V34.184Z" fill="black"/>
<path d="M146.025 34.904C145.641 34.856 145.289 34.832 144.969 34.832C142.873 34.832 141.825 35.984 141.825 38.288V44H138.321V34.856C138.321 34.536 138.305 34.048 138.273 33.392C138.241 32.736 138.225 32.24 138.225 31.904H141.609L141.705 34.136C142.473 32.6 143.721 31.832 145.449 31.832C145.689 31.832 145.881 31.84 146.025 31.856V34.904Z" fill="black"/>
<path d="M158.21 33.248C159.378 34.352 159.962 35.904 159.962 37.904C159.962 39.904 159.362 41.472 158.162 42.608C156.978 43.728 155.378 44.288 153.362 44.288C151.33 44.288 149.73 43.728 148.562 42.608C147.394 41.488 146.81 39.92 146.81 37.904C146.81 35.92 147.418 34.368 148.634 33.248C149.85 32.128 151.458 31.568 153.458 31.568C155.474 31.568 157.058 32.128 158.21 33.248ZM156.314 37.928C156.314 37.4 156.266 36.904 156.17 36.44C156.074 35.976 155.922 35.528 155.714 35.096C155.506 34.664 155.202 34.32 154.802 34.064C154.402 33.808 153.922 33.68 153.362 33.68C152.802 33.68 152.322 33.808 151.922 34.064C151.522 34.304 151.218 34.648 151.01 35.096C150.818 35.528 150.674 35.976 150.578 36.44C150.498 36.904 150.458 37.4 150.458 37.928C150.458 39.096 150.674 40.104 151.106 40.952C151.554 41.784 152.306 42.2 153.362 42.2C154.418 42.2 155.17 41.776 155.618 40.928C156.082 40.08 156.314 39.08 156.314 37.928Z" fill="black"/>
<path d="M174.388 44H170.884V37.592C170.884 37.176 170.876 36.832 170.86 36.56C170.844 36.288 170.788 35.984 170.692 35.648C170.612 35.296 170.492 35.016 170.332 34.808C170.188 34.6 169.964 34.424 169.66 34.28C169.372 34.136 169.02 34.064 168.604 34.064C168.092 34.064 167.652 34.2 167.284 34.472C166.916 34.728 166.652 35.072 166.492 35.504C166.332 35.92 166.22 36.32 166.156 36.704C166.092 37.088 166.06 37.488 166.06 37.904V44H162.556V34.28C162.556 33.416 162.524 32.624 162.46 31.904H165.94L165.988 33.752C166.532 33.048 167.116 32.536 167.74 32.216C168.364 31.88 169.108 31.712 169.972 31.712C171.428 31.712 172.524 32.096 173.26 32.864C174.012 33.616 174.388 34.72 174.388 36.176V44Z" fill="black"/>
<path d="M188.842 29.432H185.194V26.648H188.842V29.432ZM188.77 45.104C188.77 46.496 188.458 47.424 187.834 47.888C187.21 48.368 186.17 48.608 184.714 48.608C184.394 48.608 183.882 48.592 183.178 48.56V46.16C183.434 46.192 183.618 46.208 183.73 46.208C184.754 46.208 185.266 45.568 185.266 44.288V31.88H188.77V45.104Z" fill="black"/>
<path d="M202.525 40.328C202.525 41.08 202.357 41.728 202.021 42.272C201.685 42.816 201.221 43.232 200.629 43.52C200.053 43.792 199.453 43.992 198.829 44.12C198.205 44.248 197.541 44.312 196.837 44.312C193.221 44.312 191.413 42.92 191.413 40.136H194.941C194.989 41.576 195.677 42.296 197.005 42.296C197.533 42.296 197.997 42.152 198.397 41.864C198.797 41.576 198.997 41.184 198.997 40.688C198.997 39.904 198.229 39.336 196.693 38.984L195.373 38.672C194.845 38.544 194.397 38.408 194.029 38.264C193.661 38.12 193.285 37.92 192.901 37.664C192.533 37.408 192.245 37.08 192.037 36.68C191.845 36.28 191.749 35.808 191.749 35.264C191.749 34.576 191.901 33.984 192.205 33.488C192.525 32.976 192.949 32.592 193.477 32.336C194.021 32.08 194.573 31.896 195.133 31.784C195.709 31.656 196.309 31.592 196.933 31.592C198.421 31.592 199.645 31.896 200.605 32.504C201.565 33.112 202.085 34.112 202.165 35.504H198.733C198.701 34.912 198.525 34.44 198.205 34.088C197.901 33.736 197.461 33.56 196.885 33.56C196.405 33.56 195.981 33.672 195.613 33.896C195.245 34.12 195.061 34.456 195.061 34.904C195.061 35.336 195.245 35.672 195.613 35.912C195.997 36.152 196.589 36.36 197.389 36.536L198.757 36.848C199.909 37.12 200.821 37.512 201.493 38.024C202.181 38.52 202.525 39.288 202.525 40.328Z" fill="black"/>
<g clip-path="url(#clip0_28_306)">
<path d="M41 62C54.2548 62 65 51.2548 65 38C65 24.7452 54.2548 14 41 14C27.7452 14 17 24.7452 17 38C17 51.2548 27.7452 62 41 62Z" fill="black"/>
<path d="M36.2733 28.8135C36.64 28.8804 36.9916 28.6374 37.0585 28.2706C37.1254 27.9039 36.8823 27.5523 36.5155 27.4854L36.2733 28.8135ZM27.8522 36.8509C28.0375 37.1744 28.4498 37.2866 28.7734 37.1014C29.0969 36.9162 29.2091 36.5038 29.0239 36.1802L27.8522 36.8509ZM31.1351 39.0296C30.8844 38.7537 30.4575 38.7333 30.1816 38.984C29.9056 39.2346 29.8852 39.6615 30.1359 39.9375L31.1351 39.0296ZM53.3452 47.5681C53.6531 47.3579 53.7322 46.9379 53.522 46.6301C53.3117 46.3222 52.8917 46.2431 52.5839 46.4533L53.3452 47.5681ZM36.5155 27.4854C34.4267 27.1044 32.4818 27.0862 30.8652 27.4766C29.2456 27.8677 27.9065 28.6841 27.146 30.0036L28.3156 30.6778C28.8385 29.7706 29.8043 29.1216 31.1821 28.7889C32.5628 28.4555 34.308 28.455 36.2733 28.8135L36.5155 27.4854ZM27.146 30.0036C26.0161 31.9636 26.4793 34.4525 27.8522 36.8509L29.0239 36.1802C27.7467 33.9491 27.5408 32.0218 28.3156 30.6778L27.146 30.0036ZM30.1359 39.9375C31.8644 41.84 34.1434 43.6758 36.8179 45.2224L37.4937 44.0537C34.928 42.57 32.7612 40.8194 31.1351 39.0296L30.1359 39.9375ZM36.8179 45.2224C40.004 47.0647 43.2674 48.2167 46.1507 48.6353C49.0096 49.0504 51.6029 48.758 53.3452 47.5681L52.5839 46.4533C51.2471 47.3663 49.0588 47.6934 46.3447 47.2993C43.6547 46.9088 40.5534 45.8229 37.4937 44.0537L36.8179 45.2224ZM56.5096 45.8404C56.5096 44.5376 55.4548 43.4798 54.1516 43.4798V44.8298C54.7074 44.8298 55.1596 45.2812 55.1596 45.8404H56.5096ZM54.1516 43.4798C52.8484 43.4798 51.7937 44.5376 51.7937 45.8404H53.1437C53.1437 45.2812 53.596 44.8298 54.1516 44.8298V43.4798ZM51.7937 45.8404C51.7937 47.1431 52.8484 48.201 54.1516 48.201V46.851C53.596 46.851 53.1437 46.3995 53.1437 45.8404H51.7937ZM54.1516 48.201C55.4548 48.201 56.5096 47.1431 56.5096 45.8404H55.1596C55.1596 46.3995 54.7074 46.851 54.1516 46.851V48.201Z" fill="white"/>
<path d="M51.3078 38.5183C51.0671 38.803 51.1029 39.2288 51.3876 39.4695C51.6723 39.7101 52.0982 39.6744 52.3388 39.3897L51.3078 38.5183ZM48.6902 27.2155C48.3174 27.2106 48.0113 27.5089 48.0065 27.8816C48.0016 28.2544 48.2998 28.5605 48.6726 28.5653L48.6902 27.2155ZM45.1028 28.955C45.4673 28.8769 45.6993 28.5179 45.6212 28.1534C45.5429 27.789 45.184 27.5569 44.8196 27.6351L45.1028 28.955ZM26.5809 44.3393C26.635 44.7081 26.9778 44.9633 27.3467 44.9093C27.7155 44.8552 27.9707 44.5124 27.9167 44.1435L26.5809 44.3393ZM52.3388 39.3897C53.7065 37.7715 54.6894 36.0976 55.157 34.5043C55.6254 32.908 55.5875 31.3427 54.8285 30.0262L53.6591 30.7004C54.1811 31.6059 54.2601 32.7657 53.8616 34.1242C53.4621 35.4854 52.5944 36.9959 51.3078 38.5183L52.3388 39.3897ZM54.8285 30.0262C53.717 28.0977 51.3906 27.2506 48.6902 27.2155L48.6726 28.5653C51.1748 28.5979 52.8974 29.379 53.6591 30.7004L54.8285 30.0262ZM44.8196 27.6351C42.2886 28.1782 39.533 29.243 36.831 30.8055L37.5068 31.9741C40.099 30.4752 42.7231 29.4657 45.1028 28.955L44.8196 27.6351ZM36.831 30.8055C33.5513 32.702 30.8626 35.0358 29.0559 37.3973C27.2666 39.7363 26.2681 42.2043 26.5809 44.3393L27.9167 44.1435C27.6815 42.5385 28.428 40.4398 30.1282 38.2176C31.811 36.0179 34.3565 33.7958 37.5068 31.9741L36.831 30.8055Z" fill="white"/>
<path d="M35.406 46.7111C35.2805 46.36 34.8941 46.1772 34.5431 46.3027C34.1921 46.4282 34.0093 46.8146 34.1348 47.1656L35.406 46.7111ZM46.4614 50.1596C46.6532 49.84 46.5496 49.4253 46.2299 49.2335C45.9103 49.0416 45.4957 49.1452 45.3038 49.4648L46.4614 50.1596ZM46.8389 45.9423C46.7277 46.2982 46.9261 46.6767 47.2819 46.7879C47.6377 46.8991 48.0163 46.7007 48.1274 46.3449L46.8389 45.9423ZM42.9335 22.4488C42.5929 22.2973 42.194 22.4506 42.0425 22.7912C41.891 23.1319 42.0443 23.5308 42.385 23.6823L42.9335 22.4488ZM34.1348 47.1656C34.8498 49.1653 35.8061 50.8589 36.9512 52.0644C38.0984 53.2715 39.473 54.0241 40.9939 54.0241V52.6741C39.9494 52.6741 38.9062 52.1619 37.93 51.1343C36.9516 50.1046 36.0788 48.5929 35.406 46.7111L34.1348 47.1656ZM40.9939 54.0241C43.2011 54.0241 45.0846 52.4533 46.4614 50.1596L45.3038 49.4648C44.0293 51.5881 42.5046 52.6741 40.9939 52.6741V54.0241ZM48.1274 46.3449C48.8851 43.9199 49.3187 41.0687 49.3187 38.0252H47.9687C47.9687 40.9451 47.5522 43.6595 46.8389 45.9423L48.1274 46.3449ZM49.3187 38.0252C49.3187 34.2929 48.6665 30.8458 47.5611 28.1188C46.4656 25.4164 44.8789 23.3139 42.9335 22.4488L42.385 23.6823C43.8637 24.3399 45.2693 26.0587 46.31 28.626C47.3408 31.1689 47.9687 34.4401 47.9687 38.0252H49.3187Z" fill="white"/>
<path fill-rule="evenodd" clip-rule="evenodd" d="M55.8346 45.8404C55.8346 44.9095 55.0812 44.1548 54.1516 44.1548C53.2221 44.1548 52.4686 44.9095 52.4686 45.8404C52.4686 46.7713 53.2221 47.526 54.1516 47.526C55.0812 47.526 55.8346 46.7713 55.8346 45.8404Z" stroke="white" stroke-width="3.6" stroke-linecap="round"/>
<path fill-rule="evenodd" clip-rule="evenodd" d="M27.8054 47.526C28.7349 47.526 29.4884 46.7713 29.4884 45.8404C29.4884 44.9095 28.7349 44.1548 27.8054 44.1548C26.8759 44.1548 26.1224 44.9095 26.1224 45.8404C26.1224 46.7713 26.8759 47.526 27.8054 47.526Z" stroke="white" stroke-width="3.6" stroke-linecap="round"/>
<path d="M40.9938 24.387C41.9233 24.387 42.6767 23.6323 42.6767 22.7014C42.6767 21.7704 41.9233 21.0157 40.9938 21.0157C40.0643 21.0157 39.3108 21.7704 39.3108 22.7014C39.3108 23.6323 40.0643 24.387 40.9938 24.387Z" stroke="white" stroke-width="3.6" stroke-linecap="round"/>
<path fill-rule="evenodd" clip-rule="evenodd" d="M41.3188 39.5321C40.4878 39.7119 39.6692 39.183 39.4893 38.3507C39.3101 37.5184 39.8378 36.6985 40.6688 36.5183C41.4998 36.3385 42.3184 36.8674 42.4983 37.6997C42.6779 38.532 42.1498 39.3519 41.3188 39.5321Z" fill="white"/>
</g>
</g>
<defs>
<clipPath id="clip0_28_306">
<rect width="48" height="48" fill="white" transform="translate(17 14)"/>
</clipPath>
</defs>
</svg>
