<svg width="219" height="76" viewBox="0 0 219 76" fill="none" xmlns="http://www.w3.org/2000/svg">
<mask id="mask0_28_317" style="mask-type:alpha" maskUnits="userSpaceOnUse" x="0" y="0" width="219" height="76">
<rect width="219" height="76" fill="#D9D9D9"/>
</mask>
<g mask="url(#mask0_28_317)">
</g>
<g clip-path="url(#clip0_28_317)">
<mask id="mask1_28_317" style="mask-type:luminance" maskUnits="userSpaceOnUse" x="41" y="19" width="136" height="38">
<path d="M177 19H41V56.69H177V19Z" fill="white"/>
</mask>
<g mask="url(#mask1_28_317)">
<path d="M88.8918 26.879H101.666V29.357H91.4904V36.8392H100.67V39.2931H91.4904V48.7721H88.8918V26.879Z" fill="black"/>
<path d="M104.75 26.879H107.373V48.7481H104.75V26.879Z" fill="black"/>
<path d="M112.644 47.5935C111.648 46.4869 111.138 44.9471 111.138 42.9744V33.1584H113.761V42.5653C113.761 44.0569 114.101 45.1396 114.781 45.8373C115.461 46.535 116.384 46.8718 117.525 46.8718C118.399 46.8718 119.201 46.6312 119.881 46.1741C120.561 45.717 121.095 45.0915 121.484 44.3456C121.872 43.5998 122.042 42.806 122.042 41.9639V33.1584H124.689V48.7484H122.188V46.4869H122.066C121.629 47.2567 120.949 47.9063 120.002 48.4356C119.055 48.9649 118.059 49.2295 116.991 49.2295C115.072 49.2536 113.639 48.7003 112.644 47.5935Z" fill="black"/>
<path d="M132.994 48.9405C132.461 48.724 131.999 48.4594 131.611 48.0985C131.198 47.7136 130.882 47.2565 130.688 46.7272C130.493 46.1979 130.372 45.5724 130.372 44.8266V35.516H127.628V33.1583H130.372V28.7556H132.994V33.1583H136.832V35.516H133.019V44.2011C133.019 45.0671 133.189 45.7168 133.504 46.1258C133.893 46.5828 134.452 46.8234 135.204 46.8234C135.812 46.8234 136.371 46.655 136.929 46.2942V48.8203C136.613 48.9646 136.298 49.0609 135.982 49.1331C135.666 49.2053 135.253 49.2293 134.768 49.2293C134.136 49.2534 133.529 49.1331 132.994 48.9405Z" fill="black"/>
<path d="M144.118 48.9405C143.583 48.724 143.122 48.4594 142.733 48.0985C142.32 47.7136 142.004 47.2565 141.81 46.7272C141.616 46.1979 141.494 45.5724 141.494 44.8266V35.516H138.774V33.1583H141.519V28.7556H144.142V33.1583H147.954V35.516H144.142V44.2011C144.142 45.0671 144.312 45.7168 144.628 46.1258C145.016 46.5828 145.574 46.8234 146.328 46.8234C146.934 46.8234 147.493 46.655 148.052 46.2942V48.8203C147.736 48.9646 147.42 49.0609 147.104 49.1331C146.789 49.2053 146.376 49.2293 145.89 49.2293C145.259 49.2534 144.676 49.1331 144.118 48.9405Z" fill="black"/>
<path d="M153.42 48.171C152.23 47.4492 151.306 46.4869 150.626 45.2118C149.946 43.9607 149.631 42.5414 149.631 40.9776C149.631 39.4619 149.946 38.0905 150.578 36.8154C151.21 35.5644 152.084 34.5539 153.25 33.7841C154.391 33.0382 155.726 32.6533 157.256 32.6533C158.786 32.6533 160.146 32.9901 161.264 33.6878C162.405 34.3614 163.255 35.3238 163.862 36.5026C164.47 37.7056 164.761 39.0769 164.761 40.6167C164.761 40.9294 164.736 41.1941 164.664 41.4106H152.23C152.302 42.5895 152.57 43.5999 153.104 44.3939C153.614 45.2118 154.27 45.8132 155.071 46.2223C155.872 46.6313 156.698 46.8237 157.548 46.8237C159.564 46.8237 161.118 45.8854 162.211 44.0089L164.421 45.0675C163.741 46.3185 162.818 47.3289 161.652 48.0507C160.486 48.7725 159.078 49.1574 157.451 49.1574C155.97 49.2536 154.61 48.8928 153.42 48.171ZM161.992 39.3175C161.944 38.6679 161.774 38.0183 161.434 37.3688C161.094 36.7191 160.584 36.1658 159.88 35.7087C159.175 35.2517 158.276 35.0351 157.208 35.0351C155.97 35.0351 154.925 35.4201 154.075 36.2139C153.225 37.0079 152.666 38.0424 152.4 39.3175H161.992Z" fill="black"/>
<path d="M167.821 33.1825H170.322V35.6847H170.443C170.759 34.8185 171.342 34.1208 172.241 33.5434C173.115 32.966 174.038 32.6773 175.009 32.6773C175.738 32.6773 176.345 32.7976 176.855 33.0141V35.8049C176.199 35.4681 175.446 35.3237 174.645 35.3237C173.892 35.3237 173.188 35.5403 172.556 35.9733C171.925 36.4064 171.415 36.9837 171.026 37.7056C170.638 38.4273 170.468 39.2213 170.468 40.0392V48.7724H167.845V33.1825H167.821Z" fill="black"/>
<path d="M73.3114 36.3052H61.6664L51.4785 46.4002L57.2998 52.1669L73.3114 36.3052Z" fill="black"/>
<path d="M48.5673 43.5155L42.7436 37.7464L61.667 19H73.312L48.5673 43.5155Z" fill="black"/>
<path d="M57.3004 52.167L61.667 56.4927H73.312L63.1217 46.4002L57.3004 52.167Z" fill="black"/>
<path d="M57.3004 52.167L65.9364 49.2054L63.1217 46.4002L57.3004 52.167Z" fill="url(#paint0_linear_28_317)"/>
<path d="M57.2996 40.6303L51.4781 46.3972L57.2996 52.1642L63.121 46.3972L57.2996 40.6303Z" fill="black"/>
<path d="M73.312 36.3052L63.1242 46.3977L73.312 56.4927H61.667L57.3005 52.167L51.4767 46.3977L61.667 36.3052H73.312ZM61.667 19L42.7436 37.7464L48.5673 43.5155L73.312 19H61.667Z" fill="url(#paint1_radial_28_317)"/>
</g>
</g>
<defs>
<linearGradient id="paint0_linear_28_317" x1="58.998" y1="53.2807" x2="63.2939" y2="48.9441" gradientUnits="userSpaceOnUse">
<stop stop-color="#1A237E" stop-opacity="0.4"/>
<stop offset="1" stop-color="#1A237E" stop-opacity="0"/>
</linearGradient>
<radialGradient id="paint1_radial_28_317" cx="0" cy="0" r="1" gradientUnits="userSpaceOnUse" gradientTransform="translate(43.6037 21.5563) scale(46.3035 45.8701)">
<stop stop-color="white" stop-opacity="0.1"/>
<stop offset="1" stop-color="white" stop-opacity="0"/>
</radialGradient>
<clipPath id="clip0_28_317">
<rect width="136" height="38" fill="white" transform="translate(41 19)"/>
</clipPath>
</defs>
</svg>
