<svg width="219" height="76" viewBox="0 0 219 76" fill="none" xmlns="http://www.w3.org/2000/svg">
<mask id="mask0_29_326" style="mask-type:alpha" maskUnits="userSpaceOnUse" x="0" y="0" width="219" height="76">
<rect width="219" height="76" fill="#D9D9D9"/>
</mask>
<g mask="url(#mask0_29_326)">
<path d="M62.0283 47.5584H42V43.2106L55.0014 26.8383H42.8147V23H61.5531V27.0082L47.9745 43.7201H62.0283V47.5584Z" fill="black"/>
<path d="M81.8829 47.5584H76.9267L76.8588 44.9429C76.0668 45.962 75.2407 46.6979 74.3808 47.1508C73.5208 47.6037 72.4798 47.8302 71.2577 47.8302C67.0936 47.8302 65.0116 45.7242 65.0116 41.5122V30.4389H69.9678V39.5421C69.9678 40.312 69.9904 40.9235 70.0356 41.3764C70.0809 41.8293 70.1941 42.3388 70.3751 42.9049C70.5788 43.4484 70.9069 43.856 71.3596 44.1277C71.8348 44.3995 72.4345 44.5353 73.1587 44.5353C75.6028 44.5353 76.8249 42.7917 76.8249 39.3043V30.4389H81.7811V41.2405C81.7811 44.0258 81.815 46.1318 81.8829 47.5584Z" fill="black"/>
<path d="M101.226 42.3614C101.226 43.4257 100.988 44.3428 100.513 45.1128C100.038 45.8827 99.3815 46.4715 98.5442 46.8791C97.7294 47.264 96.8808 47.5471 95.9982 47.7283C95.1156 47.9094 94.1764 48 93.1806 48C88.0661 48 85.5088 46.0299 85.5088 42.0897H90.4989C90.5668 44.1277 91.5399 45.1467 93.4183 45.1467C94.1651 45.1467 94.8214 44.9429 95.3871 44.5353C95.9529 44.1277 96.2358 43.5729 96.2358 42.8709C96.2358 41.7613 95.1495 40.9574 92.977 40.4592L91.1099 40.0177C90.3631 39.8365 89.7294 39.644 89.2089 39.4402C88.6884 39.2364 88.1566 38.9534 87.6135 38.591C87.0929 38.2287 86.6856 37.7645 86.3914 37.1984C86.1198 36.6322 85.984 35.9642 85.984 35.1943C85.984 34.2206 86.199 33.3827 86.629 32.6807C87.0816 31.9561 87.6813 31.4126 88.4282 31.0503C89.1976 30.688 89.9784 30.4275 90.7705 30.269C91.5852 30.0879 92.4338 29.9973 93.3164 29.9973C95.4211 29.9973 97.1524 30.4275 98.5102 31.288C99.8681 32.1486 100.604 33.5639 100.717 35.534H95.8624C95.8171 34.6961 95.5682 34.0281 95.1156 33.5299C94.6856 33.0317 94.0632 32.7826 93.2485 32.7826C92.5696 32.7826 91.9699 32.9411 91.4494 33.2582C90.9289 33.5752 90.6686 34.0507 90.6686 34.6848C90.6686 35.2962 90.9289 35.7717 91.4494 36.1114C91.9925 36.4511 92.8299 36.7455 93.9614 36.9946L95.8963 37.4361C97.5258 37.8211 98.8157 38.3759 99.7662 39.1005C100.739 39.8025 101.226 40.8895 101.226 42.3614Z" fill="black"/>
<path d="M115.043 33.6658H111.003V41.4783C111.003 42.6105 111.139 43.3918 111.41 43.822C111.682 44.2296 112.35 44.4334 113.413 44.4334C113.617 44.4334 113.888 44.4108 114.228 44.3655C114.59 44.3202 114.85 44.2976 115.009 44.2976V47.5245C113.741 47.7056 112.564 47.7962 111.478 47.7962C109.645 47.7962 108.299 47.4792 107.439 46.8451C106.601 46.1884 106.183 44.9769 106.183 43.2106V33.6658H102.89V30.4049H106.183V27.5516L111.003 25.5815V30.4049H115.043V33.6658Z" fill="black"/>
<path d="M133.33 47.5584H128.645C128.419 46.8791 128.283 46.0978 128.238 45.2147C127.559 46.2111 126.79 46.913 125.93 47.3207C125.07 47.7056 124.017 47.8981 122.773 47.8981C121.008 47.8981 119.571 47.4565 118.462 46.5734C117.353 45.6902 116.798 44.3881 116.798 42.6671C116.798 41.8066 116.945 41.048 117.24 40.3913C117.556 39.7346 117.986 39.2024 118.529 38.7948C119.095 38.3872 119.684 38.0476 120.295 37.7758C120.928 37.5041 121.653 37.3116 122.467 37.1984C123.305 37.0625 124.04 36.9719 124.674 36.9266C125.33 36.8813 126.054 36.8587 126.846 36.8587H128.238V36.2133C128.238 33.8356 127.378 32.6467 125.658 32.6467C123.893 32.6467 123.01 33.5412 123.01 35.3302H117.952C117.975 34.3338 118.201 33.4733 118.631 32.7486C119.084 32.0014 119.695 31.4352 120.464 31.0503C121.234 30.6427 122.037 30.3596 122.875 30.2011C123.712 30.0199 124.617 29.9293 125.59 29.9293C128.148 29.9293 130.026 30.3822 131.225 31.288C132.447 32.1938 133.058 33.9601 133.058 36.587V41.6821C133.058 44.2636 133.149 46.2224 133.33 47.5584ZM128.238 39.5761V39.2704C128.08 39.2704 127.865 39.2704 127.593 39.2704C127.322 39.2477 127.107 39.2364 126.948 39.2364C126.088 39.2364 125.307 39.3043 124.606 39.4402C123.904 39.5761 123.237 39.8931 122.603 40.3913C121.992 40.8895 121.686 41.5575 121.686 42.3954C121.686 43.1653 121.958 43.788 122.501 44.2636C123.044 44.7165 123.701 44.9429 124.47 44.9429C126.982 44.9429 128.238 43.154 128.238 39.5761Z" fill="black"/>
<path d="M154.416 47.5584H149.46V38.4891C149.46 37.9004 149.448 37.4135 149.426 37.0285C149.403 36.6436 149.324 36.2133 149.188 35.7378C149.075 35.2396 148.905 34.8433 148.679 34.5489C148.475 34.2545 148.158 34.0054 147.728 33.8016C147.321 33.5978 146.823 33.4959 146.235 33.4959C145.511 33.4959 144.888 33.6884 144.368 34.0734C143.847 34.4357 143.474 34.9226 143.247 35.534C143.021 36.1227 142.863 36.6889 142.772 37.2323C142.682 37.7758 142.636 38.3419 142.636 38.9307V47.5584H137.68V33.8016C137.68 32.5788 137.635 31.4579 137.544 30.4389H142.467L142.535 33.0543C143.304 32.058 144.13 31.3333 145.013 30.8804C145.895 30.4049 146.948 30.1671 148.17 30.1671C150.229 30.1671 151.779 30.7106 152.82 31.7976C153.884 32.8619 154.416 34.4244 154.416 36.4851V47.5584Z" fill="black"/>
<path d="M176 47.5584H171.01L170.874 45.2826C170.082 46.2111 169.29 46.8791 168.498 47.2867C167.706 47.6943 166.721 47.8981 165.545 47.8981C163.055 47.8981 161.165 47.0602 159.876 45.3845C158.608 43.7088 157.975 41.5915 157.975 39.0326C157.975 37.9004 158.11 36.8247 158.382 35.8057C158.676 34.764 159.106 33.8016 159.672 32.9185C160.238 32.0353 161.007 31.3333 161.98 30.8125C162.976 30.2917 164.107 30.0313 165.375 30.0313C167.728 30.0313 169.573 30.8918 170.908 32.6128V23H175.864V42.9728C175.864 45.0109 175.909 46.5394 176 47.5584ZM171.01 38.9307C171.01 37.3682 170.67 36.0208 169.992 34.8886C169.313 33.7337 168.249 33.1563 166.801 33.1563C165.85 33.1563 165.081 33.4733 164.492 34.1073C163.904 34.7188 163.508 35.4207 163.304 36.2133C163.123 37.0059 163.033 37.8777 163.033 38.8288C163.033 42.7464 164.379 44.7052 167.072 44.7052C168.023 44.7052 168.803 44.3881 169.414 43.7541C170.048 43.0974 170.467 42.3614 170.67 41.5462C170.897 40.731 171.01 39.8591 171.01 38.9307Z" fill="black"/>
</g>
</svg>
