<svg width="219" height="76" viewBox="0 0 219 76" fill="none" xmlns="http://www.w3.org/2000/svg">
<mask id="mask0_28_302" style="mask-type:alpha" maskUnits="userSpaceOnUse" x="0" y="0" width="219" height="76">
<rect width="219" height="76" fill="#D9D9D9"/>
</mask>
<g mask="url(#mask0_28_302)">
</g>
<g clip-path="url(#clip0_28_302)">
<path fill-rule="evenodd" clip-rule="evenodd" d="M150.777 37.8826C150.777 34.255 153.546 32.1503 157.004 32.1503C159.587 32.1503 161.893 33.3603 163 36.3597C162.676 37.8813 160.74 39.5839 159.91 39.8528C159.217 38.4191 158.434 37.5684 157.697 37.5684C156.774 37.5684 156.727 38.1954 156.727 39.0009C156.727 39.5717 156.896 40.4126 157.099 41.4246C157.405 42.9523 157.788 44.8712 157.788 46.839C157.788 50.4201 155.205 53.0626 151.239 53.0626C147.607 53.0626 145.599 50.7501 144.706 47.0578C142.333 51.1852 138.863 53.0626 136.203 53.0626C132.047 53.0626 131.067 50.0791 131.168 47.0529C129.496 49.919 126.281 53.0626 123.199 53.0626C120.05 53.0626 118.939 50.4018 119.193 47.3034C117.307 50.7147 113.896 53.0626 110.608 53.0626C107.038 53.0626 105.272 50.3101 105.843 46.8977C103.443 49.7626 98.9725 53.0626 94.3261 53.0626C89.0278 53.0626 86.7228 50.2881 86.4484 46.8121C83.8918 50.7917 80.4438 53.197 76.3401 53.197C70.4123 53.197 68.2924 48.0796 67.984 43.8947C65.5563 47.0424 62.9888 50.0862 60.2888 53.0173C59.9666 53.3314 59.6896 53.5099 59.3674 53.5099C58.3062 53.5111 56.1385 48.9424 56 47.2411C56.9101 45.871 62.6478 39.7489 67.2665 34.8221C68.8904 33.0902 70.377 31.505 71.4659 30.3256C68.6373 31.1542 65.7206 32.8067 62.0424 35.3758C61.3966 35.8231 59.5977 31.7482 59.643 28.6132C63.8865 25.5699 70.343 23.6437 75.5546 23.6437C82.8432 23.6437 87.0388 27.5841 87.0388 33.0474C87.0388 37.6149 83.1188 42.6297 77.4 42.8093C74.4267 42.8839 72.5208 41.2632 71.5465 39.2624C71.6623 42.3571 73.3202 46.168 77.7688 46.168C82.6191 46.168 84.9492 43.3251 88.4223 39.0852C88.648 38.809 88.8788 38.5279 89.1146 38.2419C92.0666 34.7036 95.4792 31.5686 100.46 31.5686C103.504 31.5686 105.58 33.4056 105.58 36.1812C105.58 39.5399 101.522 44.1966 95.8493 44.1966C94.88 44.1966 93.9963 44.0731 93.2511 43.8287C93.231 43.9696 93.2205 44.1073 93.2196 44.2418C93.2196 45.8087 93.8188 46.7498 96.4485 46.7498C100.322 46.7498 103.965 44.5107 108.393 39.271C112.729 34.1218 116.003 31.8827 119.462 31.8827C121.797 31.8827 123.569 33.111 124.35 35.1802C128.987 28.6792 132.919 24.0727 136.25 21C139.524 22.3444 141.877 24.9844 141.231 25.5222C138.787 27.6733 130.623 36.3144 127.395 41.4649C126.565 42.8081 125.78 44.2858 125.78 45.002C125.78 45.6742 126.196 45.8979 126.657 45.8979C128.872 45.8979 133.314 40.8183 137.15 36.4306C138.583 34.7928 139.931 33.2503 141.046 32.1051C143.629 33.1354 146.258 35.3293 145.612 36.0908C142.2 40.0312 139.617 43.2554 139.617 45.0912C139.617 45.5838 139.801 45.8979 140.493 45.8979C141.785 45.8979 142.983 44.7783 144.967 42.4048C145.383 41.9122 145.889 41.9122 146.212 42.6737C147.088 44.7331 148.38 45.8527 149.395 45.8527C150.593 45.8527 151.193 44.8223 151.193 43.2554C151.193 42.1848 151.059 40.9393 150.942 39.8674C150.855 39.0559 150.777 38.3446 150.777 37.8826ZM76.3866 37.2996C78.8313 37.2996 81.5063 36.0016 81.5063 33.3591C81.5063 31.7556 80.4816 30.2779 77.7424 29.8269L77.3119 30.4808C75.9196 32.594 74.6067 34.5862 73.2836 36.5344C74.0767 36.9671 75.08 37.2996 76.3866 37.2996ZM101.107 38.1062C101.107 37.3888 100.645 36.8962 99.9078 36.8962C98.0573 36.8962 95.2665 39.4177 93.9535 41.8523C94.4382 42.0357 95.0072 42.1359 95.619 42.1359C98.8932 42.1359 101.107 39.7183 101.107 38.1062ZM113.237 44.5987C113.237 45.4053 113.698 45.9431 114.666 45.9431C117.665 45.9431 121.401 40.6582 121.401 38.5083C121.401 37.6137 120.894 37.0759 120.063 37.0759C117.341 37.0759 113.237 42.0907 113.237 44.5987ZM151.746 28.4336C150.685 30.1349 149.071 32.0611 148.472 32.6429C145.704 31.5233 143.122 29.2842 143.491 28.6584C144.505 26.9107 146.166 25.0309 146.765 24.4479C149.532 25.5674 152.115 27.8518 151.746 28.4336Z" fill="black"/>
</g>
<defs>
<clipPath id="clip0_28_302">
<rect width="107" height="33" fill="white" transform="translate(56 21)"/>
</clipPath>
</defs>
</svg>
