<svg width="219" height="76" viewBox="0 0 219 76" fill="none" xmlns="http://www.w3.org/2000/svg">
<mask id="mask0_28_312" style="mask-type:alpha" maskUnits="userSpaceOnUse" x="0" y="0" width="219" height="76">
<rect width="219" height="76" fill="#D9D9D9"/>
</mask>
<g mask="url(#mask0_28_312)">
<path d="M109.664 36.24C109.664 37.952 109.416 39.392 108.92 40.56C108.44 41.728 107.72 42.632 106.76 43.272C105.816 43.896 104.752 44.344 103.568 44.616C102.4 44.872 101.024 45 99.44 45H93.992V27.648H100.016C106.448 27.648 109.664 30.512 109.664 36.24ZM105.8 36.288C105.8 34.16 105.304 32.632 104.312 31.704C103.32 30.776 101.776 30.312 99.68 30.312H97.76V42.336H99.536C101.68 42.336 103.256 41.856 104.264 40.896C105.288 39.92 105.8 38.384 105.8 36.288Z" fill="black"/>
<path d="M123.015 34.248C124.183 35.352 124.767 36.904 124.767 38.904C124.767 40.904 124.167 42.472 122.967 43.608C121.783 44.728 120.183 45.288 118.167 45.288C116.135 45.288 114.535 44.728 113.367 43.608C112.199 42.488 111.615 40.92 111.615 38.904C111.615 36.92 112.223 35.368 113.439 34.248C114.655 33.128 116.263 32.568 118.263 32.568C120.279 32.568 121.863 33.128 123.015 34.248ZM121.119 38.928C121.119 38.4 121.071 37.904 120.975 37.44C120.879 36.976 120.727 36.528 120.519 36.096C120.311 35.664 120.007 35.32 119.607 35.064C119.207 34.808 118.727 34.68 118.167 34.68C117.607 34.68 117.127 34.808 116.727 35.064C116.327 35.304 116.023 35.648 115.815 36.096C115.623 36.528 115.479 36.976 115.383 37.44C115.303 37.904 115.263 38.4 115.263 38.928C115.263 40.096 115.479 41.104 115.911 41.952C116.359 42.784 117.111 43.2 118.167 43.2C119.223 43.2 119.975 42.776 120.423 41.928C120.887 41.08 121.119 40.08 121.119 38.928Z" fill="black"/>
<path d="M138.664 40.656C138.664 42.176 138.088 43.328 136.936 44.112C135.784 44.896 134.416 45.288 132.832 45.288C130.848 45.288 129.304 44.744 128.2 43.656C127.096 42.568 126.544 41.032 126.544 39.048C126.544 37.048 127.112 35.464 128.248 34.296C129.384 33.128 130.952 32.544 132.952 32.544C134.552 32.544 135.848 32.912 136.84 33.648C137.848 34.384 138.424 35.52 138.568 37.056H135.088C135.056 36.32 134.864 35.736 134.512 35.304C134.16 34.856 133.632 34.632 132.928 34.632C131.104 34.632 130.192 36.048 130.192 38.88C130.192 41.744 131.08 43.176 132.856 43.176C134.296 43.176 135.04 42.296 135.088 40.536H138.664V40.656Z" fill="black"/>
<path d="M153.867 45H149.403L144.435 38.208L149.115 32.88H153.339L148.395 38.04L153.867 45ZM144.435 45H140.931V27.648H144.435V45Z" fill="black"/>
<path d="M166.415 39.624H157.679C157.663 40.632 157.879 41.48 158.327 42.168C158.791 42.84 159.503 43.176 160.463 43.176C161.887 43.176 162.695 42.472 162.887 41.064H166.295C166.087 42.536 165.447 43.608 164.375 44.28C163.303 44.936 161.983 45.264 160.415 45.264C158.463 45.264 156.951 44.736 155.879 43.68C154.807 42.608 154.271 41.096 154.271 39.144C154.271 37.08 154.807 35.472 155.879 34.32C156.951 33.152 158.503 32.568 160.535 32.568C161.767 32.568 162.855 32.832 163.799 33.36C164.743 33.888 165.439 34.696 165.887 35.784C166.239 36.6 166.415 37.88 166.415 39.624ZM163.031 37.608C163.031 36.68 162.815 35.952 162.383 35.424C161.951 34.896 161.327 34.632 160.511 34.632C159.663 34.632 158.991 34.912 158.495 35.472C157.999 36.016 157.751 36.728 157.751 37.608H163.031Z" fill="black"/>
<path d="M176.713 35.904C176.329 35.856 175.977 35.832 175.657 35.832C173.561 35.832 172.513 36.984 172.513 39.288V45H169.009V35.856C169.009 35.536 168.993 35.048 168.961 34.392C168.929 33.736 168.913 33.24 168.913 32.904H172.297L172.393 35.136C173.161 33.6 174.409 32.832 176.137 32.832C176.377 32.832 176.569 32.84 176.713 32.856V35.904Z" fill="black"/>
<g clip-path="url(#clip0_28_312)">
<path d="M80.413 35.315C79.48 34.688 77.031 34.419 75.25 34.9C75.153 33.126 74.238 31.63 72.565 30.327L71.946 29.911L71.532 30.535C70.721 31.767 70.379 33.408 70.5 34.901C70.595 35.821 70.915 36.854 71.532 37.604C69.214 38.949 67.077 38.643 57.613 38.643H43.003C42.961 40.78 43.305 44.891 45.918 48.236C46.207 48.606 46.522 48.963 46.866 49.308C48.992 51.436 52.202 52.997 57.004 53.001C64.329 53.008 70.605 49.048 74.423 39.474C75.68 39.494 78.995 39.699 80.618 36.563C80.657 36.511 81.031 35.732 81.031 35.732L80.413 35.317V35.315ZM52.538 33.362H48.43V37.47H52.538V33.362ZM57.846 33.362H53.738V37.47H57.846V33.362ZM63.154 33.362H59.046V37.47H63.154V33.362ZM68.462 33.362H64.354V37.47H68.462V33.362ZM47.23 33.362H43.122V37.47H47.23V33.362ZM52.538 28.172H48.43V32.28H52.538V28.172ZM57.846 28.172H53.738V32.28H57.846V28.172ZM63.154 28.172H59.046V32.28H63.154V28.172ZM63.154 22.982H59.046V27.091H63.154V22.982Z" fill="black"/>
</g>
</g>
<defs>
<clipPath id="clip0_28_312">
<rect width="38" height="30" fill="white" transform="translate(43 23)"/>
</clipPath>
</defs>
</svg>
