<svg width="219" height="76" viewBox="0 0 219 76" fill="none" xmlns="http://www.w3.org/2000/svg">
<mask id="mask0_28_304" style="mask-type:alpha" maskUnits="userSpaceOnUse" x="0" y="0" width="219" height="76">
<rect width="219" height="76" fill="#D9D9D9"/>
</mask>
<g mask="url(#mask0_28_304)">
</g>
<g clip-path="url(#clip0_28_304)">
<path d="M130.096 25.0104H151.869V29.019H143.232V50.1072H138.913V29.019H130.096V25.0104Z" fill="black"/>
<path d="M94.2881 25.0104V29.019H76.8357V35.4674H90.8709V39.476H76.8357V46.0987H94.2881V50.1072H72.5172V29.019H72.5154V25.0104H94.2881Z" fill="black"/>
<path d="M105.16 25.0209H99.5083L119.751 50.1178H125.419L115.297 37.578L125.403 25.0401L119.751 25.0488L112.467 34.0727L105.16 25.0209Z" fill="black"/>
<path d="M110.959 42.9477L108.129 39.4376L99.4921 50.1369H105.16L110.959 42.9477Z" fill="black"/>
<path fill-rule="evenodd" clip-rule="evenodd" d="M72.6685 50.1073L52.3982 25H47V50.0968H51.3186V30.3644L67.2432 50.1073H72.6685Z" fill="black"/>
<path d="M152.84 49.954C152.523 49.954 152.254 49.8447 152.029 49.6261C151.804 49.4075 151.693 49.1429 151.695 48.8294C151.693 48.5246 151.804 48.2628 152.029 48.0443C152.254 47.8257 152.523 47.7164 152.84 47.7164C153.144 47.7164 153.41 47.8257 153.635 48.0443C153.864 48.2628 153.978 48.5246 153.981 48.8294C153.978 49.0365 153.925 49.2263 153.82 49.396C153.712 49.5686 153.574 49.7038 153.401 49.8016C153.232 49.9022 153.044 49.954 152.84 49.954Z" fill="black"/>
<path d="M160.211 39.3814H162.124V46.7356C162.122 47.4115 161.975 47.9896 161.689 48.4757C161.399 48.9617 160.998 49.3327 160.483 49.5944C159.971 49.8533 159.371 49.9856 158.689 49.9856C158.066 49.9856 157.507 49.8734 157.01 49.6549C156.512 49.4363 156.117 49.1084 155.827 48.677C155.535 48.2456 155.391 47.7077 155.391 47.0635H157.308C157.311 47.3454 157.375 47.5898 157.498 47.794C157.621 47.9982 157.791 48.1535 158.007 48.2628C158.227 48.3721 158.478 48.4268 158.762 48.4268C159.07 48.4268 159.333 48.3635 159.546 48.234C159.76 48.1075 159.924 47.9177 160.038 47.6646C160.149 47.4144 160.208 47.1038 160.211 46.7356V39.3814Z" fill="black"/>
<path d="M169.998 42.2575C169.952 41.8117 169.747 41.4637 169.39 41.2164C169.03 40.9661 168.565 40.8425 167.994 40.8425C167.593 40.8425 167.248 40.9029 166.961 41.0208C166.675 41.1416 166.452 41.3026 166.3 41.5068C166.148 41.711 166.072 41.944 166.066 42.2058C166.066 42.4243 166.118 42.6141 166.221 42.7723C166.323 42.9334 166.461 43.0686 166.639 43.1779C166.815 43.29 167.011 43.3821 167.225 43.4568C167.441 43.5316 167.658 43.5949 167.874 43.6467L168.872 43.8911C169.273 43.9832 169.662 44.1069 170.034 44.265C170.405 44.4204 170.742 44.6188 171.037 44.8575C171.333 45.0962 171.567 45.3838 171.74 45.7204C171.912 46.0568 172 46.4509 172 46.9053C172 47.5179 171.842 48.0557 171.523 48.5216C171.204 48.9847 170.745 49.3471 170.142 49.6088C169.542 49.8677 168.816 50 167.962 50C167.137 50 166.417 49.8735 165.811 49.6204C165.203 49.3701 164.728 49.002 164.386 48.5188C164.044 48.0356 163.859 47.446 163.833 46.7529H165.729C165.756 47.1152 165.873 47.4173 166.072 47.6617C166.273 47.9033 166.537 48.0816 166.859 48.2024C167.184 48.3203 167.546 48.3807 167.947 48.3807C168.366 48.3807 168.734 48.3174 169.053 48.1938C169.369 48.0701 169.618 47.8976 169.797 47.6732C169.978 47.4517 170.069 47.19 170.072 46.8909C170.069 46.6177 169.987 46.3904 169.829 46.2121C169.668 46.0338 169.445 45.8843 169.161 45.7635C168.875 45.6427 168.541 45.5334 168.161 45.4385L166.95 45.1336C166.075 44.9122 165.381 44.5757 164.875 44.1241C164.366 43.6726 164.114 43.0743 164.114 42.3237C164.114 41.7082 164.284 41.1675 164.626 40.7044C164.965 40.2414 165.431 39.8819 166.019 39.6259C166.61 39.3671 167.277 39.2405 168.02 39.2405C168.775 39.2405 169.437 39.3671 170.007 39.6259C170.578 39.8819 171.026 40.2385 171.35 40.6929C171.675 41.1473 171.845 41.6679 171.854 42.2575H169.998Z" fill="black"/>
</g>
<defs>
<clipPath id="clip0_28_304">
<rect width="125" height="25" fill="white" transform="translate(47 25)"/>
</clipPath>
</defs>
</svg>
