<svg width="219" height="76" viewBox="0 0 219 76" fill="none" xmlns="http://www.w3.org/2000/svg">
<mask id="mask0_28_310" style="mask-type:alpha" maskUnits="userSpaceOnUse" x="0" y="0" width="219" height="76">
<rect width="219" height="76" fill="#D9D9D9"/>
</mask>
<g mask="url(#mask0_28_310)">
<path d="M100.04 44H96.2719V36.584H88.7599V44H84.9919V26.648H88.7599V33.752H96.2719V26.648H100.04V44Z" fill="black"/>
<path d="M114.319 33.248C115.487 34.352 116.071 35.904 116.071 37.904C116.071 39.904 115.471 41.472 114.271 42.608C113.087 43.728 111.487 44.288 109.471 44.288C107.439 44.288 105.839 43.728 104.671 42.608C103.503 41.488 102.919 39.92 102.919 37.904C102.919 35.92 103.527 34.368 104.743 33.248C105.959 32.128 107.567 31.568 109.567 31.568C111.583 31.568 113.167 32.128 114.319 33.248ZM112.423 37.928C112.423 37.4 112.375 36.904 112.279 36.44C112.183 35.976 112.031 35.528 111.823 35.096C111.615 34.664 111.311 34.32 110.911 34.064C110.511 33.808 110.031 33.68 109.471 33.68C108.911 33.68 108.431 33.808 108.031 34.064C107.631 34.304 107.327 34.648 107.119 35.096C106.927 35.528 106.783 35.976 106.687 36.44C106.607 36.904 106.567 37.4 106.567 37.928C106.567 39.096 106.783 40.104 107.215 40.952C107.663 41.784 108.415 42.2 109.471 42.2C110.527 42.2 111.279 41.776 111.727 40.928C112.191 40.08 112.423 39.08 112.423 37.928Z" fill="black"/>
<path d="M130.497 44H126.993V37.592C126.993 37.176 126.985 36.832 126.969 36.56C126.953 36.288 126.897 35.984 126.801 35.648C126.721 35.296 126.601 35.016 126.441 34.808C126.297 34.6 126.073 34.424 125.769 34.28C125.481 34.136 125.129 34.064 124.713 34.064C124.201 34.064 123.761 34.2 123.393 34.472C123.025 34.728 122.761 35.072 122.601 35.504C122.441 35.92 122.329 36.32 122.265 36.704C122.201 37.088 122.169 37.488 122.169 37.904V44H118.665V34.28C118.665 33.416 118.633 32.624 118.569 31.904H122.049L122.097 33.752C122.641 33.048 123.225 32.536 123.849 32.216C124.473 31.88 125.217 31.712 126.081 31.712C127.537 31.712 128.633 32.096 129.369 32.864C130.121 33.616 130.497 34.72 130.497 36.176V44Z" fill="black"/>
<path d="M144.413 33.248C145.581 34.352 146.165 35.904 146.165 37.904C146.165 39.904 145.565 41.472 144.365 42.608C143.181 43.728 141.581 44.288 139.565 44.288C137.533 44.288 135.933 43.728 134.765 42.608C133.597 41.488 133.013 39.92 133.013 37.904C133.013 35.92 133.621 34.368 134.837 33.248C136.053 32.128 137.661 31.568 139.661 31.568C141.677 31.568 143.261 32.128 144.413 33.248ZM142.517 37.928C142.517 37.4 142.469 36.904 142.373 36.44C142.277 35.976 142.125 35.528 141.917 35.096C141.709 34.664 141.405 34.32 141.005 34.064C140.605 33.808 140.125 33.68 139.565 33.68C139.005 33.68 138.525 33.808 138.125 34.064C137.725 34.304 137.421 34.648 137.213 35.096C137.021 35.528 136.877 35.976 136.781 36.44C136.701 36.904 136.661 37.4 136.661 37.928C136.661 39.096 136.877 40.104 137.309 40.952C137.757 41.784 138.509 42.2 139.565 42.2C140.621 42.2 141.373 41.776 141.821 40.928C142.285 40.08 142.517 39.08 142.517 37.928Z" fill="black"/>
<path d="M159.882 29.432H156.234V26.648H159.882V29.432ZM159.81 45.104C159.81 46.496 159.498 47.424 158.874 47.888C158.25 48.368 157.21 48.608 155.754 48.608C155.434 48.608 154.922 48.592 154.218 48.56V46.16C154.474 46.192 154.658 46.208 154.77 46.208C155.794 46.208 156.306 45.568 156.306 44.288V31.88H159.81V45.104Z" fill="black"/>
<path d="M173.564 40.328C173.564 41.08 173.396 41.728 173.06 42.272C172.724 42.816 172.26 43.232 171.668 43.52C171.092 43.792 170.492 43.992 169.868 44.12C169.244 44.248 168.58 44.312 167.876 44.312C164.26 44.312 162.452 42.92 162.452 40.136H165.98C166.028 41.576 166.716 42.296 168.044 42.296C168.572 42.296 169.036 42.152 169.436 41.864C169.836 41.576 170.036 41.184 170.036 40.688C170.036 39.904 169.268 39.336 167.732 38.984L166.412 38.672C165.884 38.544 165.436 38.408 165.068 38.264C164.7 38.12 164.324 37.92 163.94 37.664C163.572 37.408 163.284 37.08 163.076 36.68C162.884 36.28 162.788 35.808 162.788 35.264C162.788 34.576 162.94 33.984 163.244 33.488C163.564 32.976 163.988 32.592 164.516 32.336C165.06 32.08 165.612 31.896 166.172 31.784C166.748 31.656 167.348 31.592 167.972 31.592C169.46 31.592 170.684 31.896 171.644 32.504C172.604 33.112 173.124 34.112 173.204 35.504H169.772C169.74 34.912 169.564 34.44 169.244 34.088C168.94 33.736 168.5 33.56 167.924 33.56C167.444 33.56 167.02 33.672 166.652 33.896C166.284 34.12 166.1 34.456 166.1 34.904C166.1 35.336 166.284 35.672 166.652 35.912C167.036 36.152 167.628 36.36 168.428 36.536L169.796 36.848C170.948 37.12 171.86 37.512 172.532 38.024C173.22 38.52 173.564 39.288 173.564 40.328Z" fill="black"/>
<g clip-path="url(#clip0_28_310)">
<path d="M49.9079 28.9286L52.3947 32.1429C52.3947 32.1429 55.5921 25.7143 60.2105 20C66.25 27.1429 73 37.1429 73 42.8571C73 50 66.25 55 59.8553 55C52.0395 55 46 48.9286 46 41.7857C46 39.6429 47.0658 33.2143 49.9079 28.9286Z" fill="black"/>
<path d="M59.8552 27.5C76.5526 45.7143 64.8289 51.0714 59.8552 51.0714C55.9473 51.0714 41.7368 47.1429 59.8552 27.5Z" fill="white"/>
</g>
</g>
<defs>
<clipPath id="clip0_28_310">
<rect width="27" height="35" fill="white" transform="translate(46 20)"/>
</clipPath>
</defs>
</svg>
