<svg width="219" height="76" viewBox="0 0 219 76" fill="none" xmlns="http://www.w3.org/2000/svg">
<mask id="mask0_28_319" style="mask-type:alpha" maskUnits="userSpaceOnUse" x="0" y="0" width="219" height="76">
<rect width="219" height="76" fill="#D9D9D9"/>
</mask>
<g mask="url(#mask0_28_319)">
</g>
<g clip-path="url(#clip0_28_319)">
<path d="M43.183 27C38.6 27 35.737 29.291 34.59 33.873C36.309 31.583 38.313 30.723 40.604 31.296C41.911 31.622 42.846 32.57 43.879 33.62C45.564 35.33 47.514 37.309 51.773 37.309C56.355 37.309 59.218 35.018 60.364 30.437C58.646 32.727 56.641 33.587 54.351 33.013C53.043 32.687 52.108 31.739 51.075 30.689C49.39 28.98 47.44 27 43.183 27ZM34.59 37.309C30.01 37.309 27.145 39.6 26 44.182C27.718 41.891 29.723 41.032 32.013 41.605C33.321 41.931 34.256 42.879 35.289 43.929C36.974 45.639 38.924 47.618 43.183 47.618C47.765 47.618 50.628 45.328 51.773 40.746C50.055 43.036 48.051 43.896 45.76 43.323C44.453 42.996 43.518 42.047 42.484 40.998C40.8 39.288 38.849 37.309 34.59 37.309Z" fill="black"/>
<path d="M77.547 35.688H74.547V41.491C74.547 43.039 75.563 43.015 77.547 42.918V45.264C73.532 45.747 71.936 44.635 71.936 41.491V35.688H69.71V33.172H71.935V29.925L74.547 29.151V33.172H77.545V35.688H77.547ZM88.977 33.172H91.587V45.264H88.977V43.523C88.057 44.803 86.631 45.578 84.744 45.578C81.456 45.578 78.723 42.798 78.723 39.218C78.723 35.615 81.456 32.858 84.744 32.858C86.63 32.858 88.057 33.632 88.977 34.89V33.172ZM85.156 43.087C87.332 43.087 88.976 41.467 88.976 39.217C88.976 36.969 87.332 35.349 85.156 35.349C82.979 35.349 81.335 36.969 81.335 39.218C81.335 41.467 82.979 43.088 85.155 43.088L85.156 43.087ZM95.94 31.36C95.4989 31.3551 95.0774 31.1776 94.7656 30.8656C94.4538 30.5537 94.2766 30.132 94.272 29.691C94.274 29.248 94.451 28.823 94.763 28.511C94.9174 28.3561 95.1008 28.2333 95.3028 28.1494C95.5047 28.0656 95.7213 28.0224 95.94 28.0224C96.1586 28.0224 96.3752 28.0656 96.5771 28.1494C96.7791 28.2333 96.9626 28.3561 97.117 28.511C97.429 28.823 97.607 29.248 97.608 29.691C97.608 30.586 96.858 31.36 95.94 31.36ZM94.634 45.265V33.172H97.246V45.264L94.634 45.265ZM100.269 45.265V27.609H102.88V45.263H100.27L100.269 45.265ZM119.834 33.172H122.591L118.794 45.264H116.231L113.715 37.114L111.176 45.264H108.613L104.816 33.172H107.573L109.919 41.515L112.459 33.172H114.949L117.463 41.515L119.834 33.172ZM125.83 31.36C124.91 31.36 124.161 30.586 124.161 29.691C124.163 29.248 124.341 28.823 124.653 28.511C124.807 28.356 124.991 28.233 125.193 28.1491C125.395 28.0652 125.611 28.022 125.83 28.022C126.049 28.022 126.265 28.0652 126.467 28.1491C126.669 28.233 126.853 28.356 127.007 28.511C127.32 28.823 127.497 29.248 127.499 29.691C127.499 30.586 126.749 31.36 125.83 31.36ZM124.524 45.265V33.172H127.136V45.264L124.524 45.265ZM136.52 32.858C139.228 32.858 141.163 34.696 141.163 37.84V45.263H138.551V38.105C138.551 36.267 137.487 35.301 135.843 35.301C134.126 35.301 132.772 36.316 132.772 38.783V45.263H130.16V33.174H132.772V34.72C133.57 33.463 134.875 32.858 136.52 32.858ZM153.544 28.336H156.156V45.263H153.544V43.522C152.626 44.804 151.199 45.577 149.313 45.577C146.024 45.577 143.291 42.797 143.291 39.217C143.291 35.614 146.024 32.857 149.313 32.857C151.199 32.857 152.626 33.631 153.544 34.889V28.336ZM149.723 43.087C151.9 43.087 153.544 41.467 153.544 39.217C153.544 36.969 151.9 35.349 149.723 35.349C147.547 35.349 145.903 36.969 145.903 39.218C145.903 41.467 147.547 43.087 149.723 43.087ZM164.91 45.577C161.259 45.577 158.526 42.797 158.526 39.217C158.526 35.615 161.259 32.858 164.91 32.858C167.28 32.858 169.336 34.091 170.303 35.978L168.054 37.284C167.522 36.147 166.337 35.421 164.886 35.421C162.758 35.421 161.138 37.041 161.138 39.218C161.138 41.394 162.758 43.015 164.886 43.015C166.337 43.015 167.522 42.265 168.102 41.152L170.351 42.434C169.336 44.344 167.28 45.577 164.91 45.577ZM174.656 36.509C174.656 38.71 181.161 37.379 181.161 41.854C181.161 44.273 179.057 45.578 176.445 45.578C174.027 45.578 172.286 44.489 171.512 42.748L173.761 41.443C174.148 42.531 175.116 43.183 176.445 43.183C177.606 43.183 178.501 42.797 178.501 41.829C178.501 39.678 171.996 40.887 171.996 36.559C171.996 34.285 173.955 32.858 176.421 32.858C178.404 32.858 180.049 33.778 180.895 35.373L178.695 36.606C178.259 35.663 177.412 35.228 176.421 35.228C175.478 35.228 174.656 35.638 174.656 36.509ZM185.804 36.509C185.804 38.71 192.309 37.379 192.309 41.854C192.309 44.273 190.205 45.578 187.593 45.578C185.175 45.578 183.435 44.489 182.66 42.748L184.909 41.443C185.296 42.531 186.263 43.183 187.593 43.183C188.754 43.183 189.649 42.797 189.649 41.829C189.649 39.678 183.144 40.887 183.144 36.559C183.144 34.285 185.103 32.858 187.57 32.858C189.552 32.858 191.197 33.778 192.043 35.373L189.843 36.606C189.408 35.663 188.561 35.228 187.57 35.228C186.626 35.228 185.804 35.638 185.804 36.509Z" fill="black"/>
</g>
<defs>
<clipPath id="clip0_28_319">
<rect width="167" height="21" fill="white" transform="translate(26 27)"/>
</clipPath>
</defs>
</svg>
