<svg width="219" height="76" viewBox="0 0 219 76" fill="none" xmlns="http://www.w3.org/2000/svg">
<mask id="mask0_28_300" style="mask-type:alpha" maskUnits="userSpaceOnUse" x="0" y="0" width="219" height="76">
<rect width="219" height="76" fill="#D9D9D9"/>
</mask>
<g mask="url(#mask0_28_300)">
</g>
<g clip-path="url(#clip0_28_300)">
<path d="M105.895 51C106.187 51 106.435 50.7582 106.435 50.46V37.905C106.435 37.905 107.11 39.12 108.325 41.145L113.59 50.19C113.831 50.6949 114.365 51 114.805 51H118.45V30.75H114.805C114.562 30.75 114.265 30.9517 114.265 31.29V43.98L111.835 39.66L106.975 31.425C106.738 31.0053 106.23 30.75 105.76 30.75H102.25V51H105.895Z" fill="black"/>
<path d="M153.01 36.42H154.765C155.212 36.42 155.575 36.0573 155.575 35.61V32.1H159.355V36.42H163V39.66H159.355V45.465C159.355 46.8825 160.038 47.49 161.245 47.49H163V51H160.705C157.593 51 155.575 48.9846 155.575 45.6V39.66H153.01V36.42Z" fill="black"/>
<path d="M134.785 36.42V44.79C134.785 46.6805 134.075 48.2742 133.03 49.38C131.985 50.4858 130.541 51 128.575 51C126.609 51 125.03 50.4858 123.985 49.38C122.957 48.2742 122.23 46.6805 122.23 44.79V36.42H124.39C124.851 36.42 125.304 36.504 125.605 36.825C125.906 37.1282 126.01 37.3063 126.01 37.77V44.79C126.01 45.878 126.072 46.55 126.55 47.085C127.028 47.6022 127.618 47.76 128.575 47.76C129.549 47.76 129.987 47.6022 130.465 47.085C130.943 46.55 131.005 45.878 131.005 44.79V37.77C131.005 37.3063 131.109 37.011 131.41 36.69C131.675 36.408 131.954 36.4146 132.355 36.42C132.41 36.4207 132.569 36.42 132.625 36.42H134.785Z" fill="black"/>
<path d="M146.26 43.44L150.85 36.42H147.34C146.898 36.42 146.505 36.5787 146.26 36.96L144.1 40.2L142.075 37.095C141.83 36.7137 141.302 36.42 140.86 36.42H137.485L142.075 43.305L137.08 51H140.59C141.029 51 141.425 50.5662 141.67 50.19L144.1 46.545L146.665 50.325C146.91 50.7012 147.306 51 147.745 51H151.255L146.26 43.44Z" fill="black"/>
<path d="M77.68 51H92.665C93.1432 51 93.6008 50.8321 94.015 50.595C94.4292 50.3579 94.8561 50.0605 95.095 49.65C95.334 49.2395 95.5003 48.7739 95.5 48.2999C95.4997 47.8259 95.3344 47.3604 95.095 46.9501L84.97 29.535C84.7311 29.1246 84.439 28.827 84.025 28.59C83.611 28.353 83.0182 28.185 82.54 28.185C82.0618 28.185 81.604 28.353 81.19 28.59C80.776 28.827 80.484 29.1246 80.245 29.535L77.68 33.99L72.55 25.3497C72.3108 24.9393 72.0192 24.5069 71.605 24.27C71.1908 24.0331 70.7332 24 70.255 24C69.7768 24 69.3192 24.0331 68.905 24.27C68.4909 24.5069 68.0642 24.9393 67.825 25.3497L55.27 46.9501C55.0306 47.3604 55.0002 47.8259 55 48.2999C54.9998 48.7739 55.031 49.2395 55.27 49.65C55.509 50.0604 55.9359 50.3579 56.35 50.595C56.7641 50.8321 57.2218 51 57.7 51H67.15C70.8945 51 73.6199 49.3203 75.52 46.14L80.11 38.175L82.54 33.99L89.965 46.68H80.11L77.68 51ZM67.015 46.68H60.4L70.255 29.67L75.25 38.175L71.9413 43.9429C70.6794 46.0064 69.2409 46.68 67.015 46.68Z" fill="black"/>
</g>
<defs>
<clipPath id="clip0_28_300">
<rect width="108" height="27" fill="white" transform="translate(55 24)"/>
</clipPath>
</defs>
</svg>
