<svg width="219" height="76" viewBox="0 0 219 76" fill="none" xmlns="http://www.w3.org/2000/svg">
<mask id="mask0_28_318" style="mask-type:alpha" maskUnits="userSpaceOnUse" x="0" y="0" width="219" height="76">
<rect width="219" height="76" fill="#D9D9D9"/>
</mask>
<g mask="url(#mask0_28_318)">
</g>
<g clip-path="url(#clip0_28_318)">
<path d="M171 25.6364C171 27.0924 169.822 28.2727 168.369 28.2727C166.916 28.2727 165.738 27.0924 165.738 25.6364C165.738 24.1803 166.916 23 168.369 23C169.822 23 171 24.1803 171 25.6364Z" fill="black"/>
<path d="M138.77 46.0682C139.86 46.0682 140.743 45.183 140.743 44.0909V36.1818C140.743 35.0898 141.627 34.2045 142.717 34.2045H146.663C147.753 34.2045 148.636 35.0898 148.636 36.1818V44.0909C148.636 45.183 149.52 46.0682 150.61 46.0682C151.7 46.0682 152.583 45.183 152.583 44.0909V36.1818C152.583 35.0898 153.466 34.2045 154.556 34.2045H158.503C159.593 34.2045 160.476 35.0898 160.476 36.1818V44.0909C160.476 45.183 161.359 46.0682 162.449 46.0682H168.369C169.459 46.0682 170.342 45.183 170.342 44.0909V32.2273C170.342 31.1352 169.459 30.25 168.369 30.25C167.279 30.25 166.396 31.1352 166.396 32.2273V41.125C166.396 41.671 165.954 42.1136 165.409 42.1136C164.864 42.1136 164.422 41.671 164.422 41.125V32.2273C164.422 31.1352 163.539 30.25 162.449 30.25H138.77C137.68 30.25 136.797 31.1352 136.797 32.2273V44.0909C136.797 45.183 137.68 46.0682 138.77 46.0682Z" fill="black"/>
<path fill-rule="evenodd" clip-rule="evenodd" d="M53.9198 42.1136C52.83 42.1136 51.9465 41.2284 51.9465 40.1364V32.2273C51.9465 31.1352 51.0631 30.25 49.9733 30.25C48.8835 30.25 48 31.1352 48 32.2273V44.0909C48 45.183 48.8835 46.0682 49.9733 46.0682H73.6524C74.7423 46.0682 75.6257 45.183 75.6257 44.0909V36.1818C75.6257 35.0898 76.509 34.2045 77.5989 34.2045H100.291C100.836 34.2045 101.278 34.6472 101.278 35.1932C101.278 35.7392 100.836 36.1818 100.291 36.1818H79.5722C78.4823 36.1818 77.5989 37.0671 77.5989 38.1591V44.0909C77.5989 45.183 78.4823 46.0682 79.5722 46.0682H103.251C104.341 46.0682 105.225 45.183 105.225 44.0909V32.2273C105.225 31.1352 104.341 30.25 103.251 30.25H73.6524C72.5625 30.25 71.6791 31.1352 71.6791 32.2273V40.1364C71.6791 41.2284 70.7958 42.1136 69.7059 42.1136H65.7594C64.6695 42.1136 63.7861 41.2284 63.7861 40.1364V32.2273C63.7861 31.1352 62.9026 30.25 61.8128 30.25C60.723 30.25 59.8396 31.1352 59.8396 32.2273V40.1364C59.8396 41.2284 58.9561 42.1136 57.8663 42.1136H53.9198ZM101.278 41.125C101.278 41.671 100.836 42.1136 100.291 42.1136H82.5321C81.9872 42.1136 81.5455 41.671 81.5455 41.125C81.5455 40.579 81.9872 40.1364 82.5321 40.1364H100.291C100.836 40.1364 101.278 40.579 101.278 41.125Z" fill="black"/>
<path fill-rule="evenodd" clip-rule="evenodd" d="M107.198 44.0909C107.198 45.183 108.081 46.0682 109.171 46.0682H129.89C130.435 46.0682 130.877 46.5109 130.877 47.0568C130.877 47.6028 130.435 48.0455 129.89 48.0455H109.171C108.081 48.0455 107.198 48.9306 107.198 50.0227C107.198 51.1148 108.081 52 109.171 52H132.85C133.94 52 134.824 51.1148 134.824 50.0227V32.2273C134.824 31.1352 133.94 30.25 132.85 30.25H109.171C108.081 30.25 107.198 31.1352 107.198 32.2273V44.0909ZM113.118 34.2045C112.028 34.2045 111.144 35.0898 111.144 36.1818V40.1364C111.144 41.2284 112.028 42.1136 113.118 42.1136H128.904C129.994 42.1136 130.877 41.2284 130.877 40.1364V36.1818C130.877 35.0898 129.994 34.2045 128.904 34.2045H113.118Z" fill="black"/>
</g>
<defs>
<clipPath id="clip0_28_318">
<rect width="123" height="29" fill="white" transform="translate(48 23)"/>
</clipPath>
</defs>
</svg>
