<svg width="219" height="76" viewBox="0 0 219 76" fill="none" xmlns="http://www.w3.org/2000/svg">
<mask id="mask0_28_309" style="mask-type:alpha" maskUnits="userSpaceOnUse" x="0" y="0" width="219" height="76">
<rect width="219" height="76" fill="#D9D9D9"/>
</mask>
<g mask="url(#mask0_28_309)">
</g>
<g clip-path="url(#clip0_28_309)">
<path d="M46.0561 22.8124C44.6075 21.1091 43.3601 19.3792 43.1052 19.02C43.0784 18.9933 43.0381 18.9933 43.0113 19.02C42.7565 19.3792 41.5091 21.1091 40.0604 22.8124C27.6266 38.5276 42.0188 49.1332 42.0188 49.1332L42.1395 49.213C42.2468 50.8497 42.515 53.205 42.515 53.205H43.0516H43.5881C43.5881 53.205 43.8563 50.863 43.9636 49.213L44.0844 49.1199C44.0978 49.1332 58.49 38.5276 46.0561 22.8124ZM43.0516 48.8936C43.0516 48.8936 42.4077 48.3481 42.2334 48.0687V48.0419L43.0113 30.9295C43.0113 30.8763 43.0918 30.8763 43.0918 30.9295L43.8697 48.0419V48.0687C43.6954 48.3481 43.0516 48.8936 43.0516 48.8936Z" fill="black"/>
<path d="M69.9856 45.4016L63.9882 30.8854L63.9748 30.8453H59.3086V31.8211H60.0617C60.2902 31.8211 60.5054 31.9147 60.6668 32.0751C60.8281 32.2355 60.9088 32.4494 60.9088 32.6766L60.7744 47.2864C60.7744 47.7408 60.3979 48.115 59.9407 48.1285L59.1742 48.1418V49.1042H63.7194V48.1418L63.2486 48.1285C62.7915 48.115 62.4149 47.7408 62.4149 47.2864V33.5187L68.9503 49.1042C69.0443 49.3314 69.2594 49.4784 69.5016 49.4784C69.7436 49.4784 69.9587 49.3314 70.0529 49.1042L76.4402 33.8662L76.5344 47.2864C76.5344 47.7542 76.1578 48.1285 75.6872 48.1418H75.2031V49.1042H80.5281V48.1418H79.8019C79.3448 48.1418 78.9682 47.7542 78.9548 47.2997L78.9145 32.6899C78.9145 32.2221 79.2909 31.8478 79.7482 31.8345L80.5281 31.8211V30.8453H75.9829L69.9856 45.4016Z" fill="black"/>
<path d="M111.803 47.8874C111.654 47.7402 111.573 47.5394 111.573 47.2983V40.1214C111.573 38.7557 111.169 37.6845 110.36 36.9213C109.565 36.158 108.459 35.7698 107.084 35.7698C105.156 35.7698 103.633 36.5464 102.567 38.0728C102.554 38.0996 102.514 38.113 102.473 38.113C102.433 38.113 102.406 38.0861 102.406 38.0461L101.907 36.1313H101.071L98.9274 37.3497V38.0192H99.4802C99.7363 38.0192 99.952 38.0861 100.1 38.2202C100.249 38.3541 100.329 38.5549 100.329 38.836V47.2849C100.329 47.5259 100.249 47.7268 100.1 47.8741C99.952 48.0213 99.7498 48.1017 99.5071 48.1017H98.9678V49.0791H103.902V48.1017H103.363C103.12 48.1017 102.918 48.0213 102.77 47.8741C102.621 47.7268 102.54 47.5259 102.54 47.2849V41.688C102.54 40.9784 102.702 40.2687 102.999 39.5724C103.309 38.8896 103.767 38.3139 104.374 37.872C104.981 37.4301 105.709 37.2158 106.545 37.2158C107.488 37.2158 108.203 37.5104 108.648 38.0996C109.093 38.6888 109.322 39.4519 109.322 40.3624V47.2716C109.322 47.5125 109.241 47.7133 109.093 47.8607C108.944 48.008 108.742 48.0882 108.5 48.0882H107.96V49.0657H112.895V48.0882H112.355C112.153 48.1151 111.964 48.0347 111.803 47.8874Z" fill="black"/>
<path d="M156.885 31.9383C155.521 31.2185 153.996 30.8453 152.351 30.8453H145.933V31.8183H146.561C146.802 31.8183 147.016 31.9116 147.23 32.1249C147.431 32.3248 147.537 32.5515 147.537 32.7913V47.1332C147.537 47.373 147.431 47.5997 147.23 47.7996C147.029 47.9995 146.802 48.1061 146.561 48.1061H145.933V49.0791H152.351C153.996 49.0791 155.521 48.706 156.885 47.9862C158.248 47.2664 159.358 46.2001 160.161 44.8407C160.963 43.4811 161.378 41.8417 161.378 39.9756C161.378 38.1096 160.963 36.4834 160.161 35.1106C159.345 33.7244 158.248 32.6714 156.885 31.9383ZM158.797 39.9489C158.797 41.6551 158.489 43.0945 157.887 44.2541C157.286 45.4138 156.483 46.2801 155.494 46.84C154.504 47.3998 153.408 47.6797 152.231 47.6797H150.934C150.693 47.6797 150.479 47.5864 150.265 47.373C150.065 47.1731 149.958 46.9466 149.958 46.7066V33.1779C149.958 32.938 150.051 32.7248 150.265 32.5114C150.466 32.3115 150.693 32.2049 150.934 32.2049H152.231C153.408 32.2049 154.504 32.4848 155.494 33.0446C156.483 33.6044 157.286 34.4708 157.887 35.6303C158.489 36.8033 158.797 38.2561 158.797 39.9489Z" fill="black"/>
<path d="M176.55 40.922C175.956 40.2421 174.81 39.669 173.463 39.3624C175.323 38.4427 176.28 37.1498 176.28 35.4838C176.28 34.5774 176.038 33.7643 175.552 33.0712C175.067 32.3782 174.379 31.8183 173.504 31.4318C172.627 31.0453 171.602 30.8453 170.443 30.8453H163.177V31.8183H163.757C164 31.8183 164.215 31.9116 164.431 32.1249C164.633 32.3248 164.741 32.5515 164.741 32.7913V47.1332C164.741 47.373 164.633 47.5997 164.431 47.7996C164.229 47.9995 164 48.1061 163.757 48.1061H163.123V49.0791H171.01C172.209 49.0791 173.328 48.8792 174.339 48.4793C175.35 48.0795 176.159 47.4931 176.739 46.7199C177.331 45.9469 177.628 45.0005 177.628 43.9075C177.615 42.7346 177.264 41.7349 176.55 40.922ZM167.504 47.3863C167.302 47.1864 167.194 46.9599 167.194 46.7199V40.2821H170.942C172.263 40.2821 173.274 40.6153 173.975 41.2817C174.676 41.9483 175.027 42.8146 175.027 43.8809C175.027 44.5207 174.864 45.1472 174.569 45.7203C174.258 46.3068 173.799 46.7733 173.18 47.1332C172.573 47.4931 171.818 47.6797 170.942 47.6797H168.178C167.936 47.6797 167.72 47.5864 167.504 47.3863ZM167.208 38.9092V33.1912C167.208 32.9513 167.302 32.7381 167.518 32.5247C167.72 32.3248 167.949 32.2182 168.192 32.2182H169.971C171.251 32.2182 172.195 32.5382 172.789 33.1512C173.381 33.7777 173.678 34.5774 173.678 35.5638C173.678 36.5767 173.395 37.3898 172.843 38.0028C172.289 38.6027 171.454 38.9092 170.349 38.9092H167.208Z" fill="black"/>
<path d="M93.018 36.62C91.988 36.062 90.8375 35.7698 89.5935 35.7698C88.3495 35.7698 87.1856 36.0487 86.1689 36.62C85.1389 37.1778 84.3228 37.988 83.7209 39.0109C83.119 40.0337 82.8113 41.2293 82.8113 42.5575C82.8113 43.8858 83.119 45.0814 83.7209 46.1042C84.3228 47.127 85.1389 47.9373 86.1689 48.4952C87.199 49.053 88.3495 49.3453 89.5935 49.3453C90.8375 49.3453 92.0014 49.0664 93.018 48.4952C94.0481 47.9373 94.8641 47.127 95.4661 46.1042C96.068 45.0814 96.3757 43.8858 96.3757 42.5575C96.3757 41.2293 96.068 40.0337 95.4661 39.0109C94.8641 37.988 94.0481 37.1778 93.018 36.62ZM94.008 42.5575C94.008 44.1914 93.6067 45.5197 92.804 46.4761C92.0148 47.4325 90.9313 47.924 89.5935 47.924C88.2559 47.924 87.1722 47.4325 86.383 46.4761C85.5803 45.5197 85.179 44.1914 85.179 42.5575C85.179 40.9237 85.5803 39.5954 86.383 38.639C87.1722 37.6826 88.2559 37.1911 89.5935 37.1911C90.9313 37.1911 92.0148 37.6826 92.804 38.639C93.6067 39.5954 94.008 40.9237 94.008 42.5575Z" fill="black"/>
<path d="M140.426 36.62C139.396 36.062 138.246 35.7698 137.002 35.7698C135.758 35.7698 134.594 36.0487 133.577 36.62C132.547 37.1778 131.731 37.988 131.129 39.0109C130.527 40.0337 130.22 41.2293 130.22 42.5575C130.22 43.8858 130.527 45.0814 131.129 46.1042C131.731 47.127 132.547 47.9373 133.577 48.4952C134.607 49.053 135.758 49.3453 137.002 49.3453C138.246 49.3453 139.41 49.0664 140.426 48.4952C141.456 47.9373 142.272 47.127 142.874 46.1042C143.476 45.0814 143.784 43.8858 143.784 42.5575C143.784 41.2293 143.476 40.0337 142.874 39.0109C142.272 37.988 141.443 37.1778 140.426 36.62ZM141.416 42.5575C141.416 44.1914 141.015 45.5197 140.212 46.4761C139.423 47.4325 138.339 47.924 137.002 47.924C135.664 47.924 134.58 47.4325 133.791 46.4761C132.989 45.5197 132.587 44.1914 132.587 42.5575C132.587 40.9104 132.989 39.5954 133.791 38.639C134.58 37.6826 135.664 37.1911 137.002 37.1911C138.339 37.1911 139.423 37.6826 140.212 38.639C141.002 39.5954 141.416 40.9237 141.416 42.5575Z" fill="black"/>
<path d="M121.307 35.7698C120.229 35.7698 119.246 35.9966 118.357 36.4503C117.468 36.904 116.767 37.518 116.269 38.3052C115.77 39.0791 115.514 39.9466 115.514 40.8674C115.514 41.6947 115.703 42.4553 116.093 43.136C116.471 43.7899 116.983 44.3369 117.629 44.7906L115.703 47.3795C115.46 47.6997 115.433 48.1267 115.609 48.4737C115.797 48.834 116.147 49.0476 116.552 49.0476H117.104C116.565 49.4079 116.134 49.8348 115.838 50.3419C115.487 50.9157 115.312 51.5162 115.312 52.13C115.312 53.2777 115.824 54.2252 116.834 54.9324C117.831 55.6397 119.233 56 120.997 56C122.223 56 123.395 55.7998 124.46 55.4128C125.538 55.0259 126.413 54.452 127.06 53.7048C127.72 52.9575 128.057 52.05 128.057 51.0091C128.057 49.915 127.653 49.1409 126.71 48.3937C125.901 47.7664 124.635 47.4329 123.059 47.4329H117.67C117.656 47.4329 117.643 47.4195 117.643 47.4195C117.643 47.4195 117.629 47.3928 117.643 47.3795L119.044 45.5113C119.421 45.6847 119.771 45.7915 120.081 45.8581C120.405 45.9249 120.768 45.9516 121.173 45.9516C122.304 45.9516 123.328 45.7248 124.217 45.2711C125.106 44.8173 125.821 44.2035 126.332 43.4161C126.844 42.6422 127.1 41.7748 127.1 40.8541C127.1 39.8665 126.615 38.065 125.295 37.1442C125.295 37.1309 125.309 37.1309 125.309 37.1309L128.205 37.4511V36.1301H123.571C122.843 35.9033 122.089 35.7698 121.307 35.7698ZM122.924 44.1234C122.412 44.3902 121.86 44.537 121.307 44.537C120.405 44.537 119.61 44.2168 118.936 43.5897C118.263 42.9624 117.926 42.0417 117.926 40.8674C117.926 39.6931 118.263 38.7722 118.936 38.1451C119.61 37.518 120.405 37.1976 121.307 37.1976C121.873 37.1976 122.412 37.3311 122.924 37.6113C123.436 37.8782 123.854 38.2919 124.19 38.839C124.514 39.3862 124.689 40.0667 124.689 40.8674C124.689 41.6814 124.527 42.3619 124.19 42.8957C123.867 43.4429 123.436 43.8565 122.924 44.1234ZM119.273 49.0341H122.924C123.934 49.0341 124.581 49.2343 125.012 49.6614C125.443 50.0884 125.659 50.6621 125.659 51.3295C125.659 52.3036 125.268 53.1043 124.487 53.7048C123.705 54.3053 122.655 54.6122 121.361 54.6122C120.229 54.6122 119.286 54.3587 118.599 53.8782C117.912 53.3979 117.562 52.6639 117.562 51.7298C117.562 51.1426 117.724 50.5955 118.047 50.1151C118.37 49.6347 118.761 49.2877 119.273 49.0341Z" fill="black"/>
<path d="M180.361 48.8564C180.095 48.7123 179.895 48.5027 179.735 48.2538C179.589 47.9919 179.508 47.7168 179.508 47.4154C179.508 47.1141 179.589 46.826 179.735 46.5771C179.882 46.315 180.095 46.1186 180.361 45.9744C180.628 45.8304 180.921 45.7518 181.254 45.7518C181.587 45.7518 181.88 45.8304 182.147 45.9744C182.413 46.1186 182.613 46.3282 182.773 46.5771C182.919 46.839 183 47.1141 183 47.4154C183 47.7168 182.919 48.0049 182.773 48.2538C182.627 48.5159 182.413 48.7123 182.147 48.8564C181.88 49.0004 181.587 49.0791 181.254 49.0791C180.934 49.0791 180.628 49.0136 180.361 48.8564ZM182.001 48.673C182.226 48.5551 182.388 48.3717 182.521 48.1621C182.64 47.9394 182.707 47.6905 182.707 47.4154C182.707 47.1403 182.64 46.8914 182.521 46.6688C182.4 46.4461 182.226 46.2758 182.001 46.1578C181.774 46.0399 181.533 45.9744 181.254 45.9744C180.975 45.9744 180.734 46.0399 180.507 46.1578C180.282 46.2758 180.121 46.4592 179.988 46.6688C179.868 46.8914 179.801 47.1403 179.801 47.4154C179.801 47.6905 179.868 47.9394 179.988 48.1621C180.108 48.3848 180.282 48.5551 180.507 48.673C180.734 48.791 180.975 48.8564 181.254 48.8564C181.533 48.8564 181.787 48.791 182.001 48.673ZM180.534 48.2145V48.0966L180.561 48.0836H180.642C180.667 48.0836 180.694 48.0704 180.707 48.0573C180.734 48.0311 180.734 48.0181 180.734 47.9919V46.7735C180.734 46.7473 180.721 46.7212 180.707 46.708C180.681 46.6818 180.667 46.6818 180.642 46.6818H180.561L180.534 46.6688V46.5509L180.561 46.5378H181.254C181.454 46.5378 181.601 46.5771 181.72 46.6688C181.841 46.7605 181.893 46.8784 181.893 47.0356C181.893 47.1535 181.854 47.2713 181.76 47.35C181.668 47.4417 181.56 47.4941 181.427 47.5071L181.587 47.5596L181.893 48.0442C181.92 48.0836 181.947 48.0966 181.987 48.0966H182.067L182.08 48.1098V48.2276L182.067 48.2408H181.654L181.627 48.2276L181.2 47.5202H181.094V47.9919C181.094 48.0181 181.108 48.0442 181.121 48.0573C181.148 48.0836 181.161 48.0836 181.187 48.0836H181.268L181.294 48.0966V48.2145L181.268 48.2276H180.561L180.534 48.2145ZM181.214 47.35C181.321 47.35 181.414 47.3237 181.468 47.2583C181.52 47.2058 181.56 47.1141 181.56 47.0094C181.56 46.9045 181.533 46.826 181.481 46.7605C181.427 46.695 181.347 46.6688 181.254 46.6688H181.2C181.174 46.6688 181.148 46.6818 181.135 46.695C181.108 46.7211 181.108 46.7343 181.108 46.7605V47.35H181.214Z" fill="black"/>
</g>
<defs>
<clipPath id="clip0_28_309">
<rect width="148" height="37" fill="white" transform="translate(35 19)"/>
</clipPath>
</defs>
</svg>
