<svg width="219" height="76" viewBox="0 0 219 76" fill="none" xmlns="http://www.w3.org/2000/svg">
<mask id="mask0_28_315" style="mask-type:alpha" maskUnits="userSpaceOnUse" x="0" y="0" width="219" height="76">
<rect width="219" height="76" fill="#D9D9D9"/>
</mask>
<g mask="url(#mask0_28_315)">
</g>
<g clip-path="url(#clip0_28_315)">
<path fill-rule="evenodd" clip-rule="evenodd" d="M66.0609 30.05C65.8618 30.05 65.8121 29.95 65.9116 29.8L66.9565 28.45C67.056 28.3 67.3048 28.2 67.5038 28.2H85.2676C85.4666 28.2 85.5164 28.35 85.4169 28.5L84.571 29.8C84.4715 29.95 84.2227 30.1 84.0734 30.1L66.0609 30.05Z" fill="black"/>
<path fill-rule="evenodd" clip-rule="evenodd" d="M58.5473 34.65C58.3483 34.65 58.2985 34.55 58.398 34.4L59.443 33.05C59.5425 32.9 59.7913 32.8 59.9903 32.8H82.6802C82.8792 32.8 82.9787 32.95 82.9289 33.1L82.5309 34.3C82.4811 34.5 82.2821 34.6 82.0831 34.6L58.5473 34.65Z" fill="black"/>
<path fill-rule="evenodd" clip-rule="evenodd" d="M70.5888 39.25C70.3898 39.25 70.34 39.1 70.4395 38.95L71.1361 37.7C71.2357 37.55 71.4347 37.4 71.6337 37.4H81.5854C81.7845 37.4 81.884 37.55 81.884 37.75L81.7845 38.95C81.7845 39.15 81.5854 39.3 81.4361 39.3L70.5888 39.25Z" fill="black"/>
<path fill-rule="evenodd" clip-rule="evenodd" d="M122.238 29.15C119.103 29.95 116.964 30.55 113.879 31.35C113.132 31.55 113.083 31.6 112.436 30.85C111.689 30 111.142 29.45 110.097 28.95C106.962 27.4 103.927 27.85 101.091 29.7C97.7072 31.9 95.9656 35.15 96.0154 39.2C96.0651 43.2 98.8018 46.5 102.733 47.05C106.116 47.5 108.953 46.3 111.192 43.75C111.64 43.2 112.038 42.6 112.535 41.9C110.744 41.9 108.505 41.9 102.932 41.9C101.887 41.9 101.638 41.25 101.986 40.4C102.633 38.85 103.827 36.25 104.524 34.95C104.673 34.65 105.022 34.15 105.768 34.15H123.88C123.781 35.5 123.781 36.85 123.582 38.2C123.034 41.8 121.691 45.1 119.501 48C115.919 52.75 111.241 55.7 105.32 56.5C100.444 57.15 95.9158 56.2 91.9352 53.2C88.253 50.4 86.1632 46.7 85.6158 42.1C84.969 36.65 86.5613 31.75 89.8453 27.45C93.3782 22.8 98.0555 19.85 103.778 18.8C108.455 17.95 112.933 18.5 116.964 21.25C119.601 23 121.492 25.4 122.736 28.3C123.034 28.75 122.835 29 122.238 29.15Z" fill="black"/>
<path d="M138.708 56.8C134.18 56.7 130.05 55.4 126.567 52.4C123.631 49.85 121.79 46.6 121.193 42.75C120.297 37.1 121.84 32.1 125.224 27.65C128.856 22.85 133.235 20.35 139.156 19.3C144.231 18.4 149.008 18.9 153.337 21.85C157.268 24.55 159.706 28.2 160.353 33C161.199 39.75 159.258 45.25 154.631 49.95C151.347 53.3 147.316 55.4 142.689 56.35C141.345 56.6 140.002 56.65 138.708 56.8ZM150.551 36.6C150.501 35.95 150.501 35.45 150.401 34.95C149.506 30 144.978 27.2 140.251 28.3C135.623 29.35 132.638 32.3 131.543 37C130.647 40.9 132.538 44.85 136.121 46.45C138.857 47.65 141.594 47.5 144.231 46.15C148.162 44.1 150.302 40.9 150.551 36.6Z" fill="black"/>
</g>
<defs>
<clipPath id="clip0_28_315">
<rect width="103" height="39" fill="white" transform="translate(58 18)"/>
</clipPath>
</defs>
</svg>
