<svg width="219" height="76" viewBox="0 0 219 76" fill="none" xmlns="http://www.w3.org/2000/svg">
<mask id="mask0_28_299" style="mask-type:alpha" maskUnits="userSpaceOnUse" x="0" y="0" width="219" height="76">
<rect width="219" height="76" fill="#D9D9D9"/>
</mask>
<g mask="url(#mask0_28_299)">
<g clip-path="url(#clip0_28_299)">
<path d="M75.2973 21.9688L70.9036 29.5094L66.5098 21.9688H51.9036L70.9036 54.625L89.9036 21.9688H75.2973Z" fill="black"/>
<path d="M75.2973 21.9688L70.9035 29.5094L66.5098 21.9688H59.5035L70.9035 41.5625L82.3035 21.9688H75.2973Z" fill="#737373"/>
</g>
<path d="M116.725 28.3068L110.807 44.3333H106.728L100.898 28.3068H104.644L108.878 41.4295L113.267 28.3068H116.725Z" fill="black"/>
<path d="M127.582 44.3333H124.345L124.301 42.6265C123.784 43.2915 123.244 43.7718 122.683 44.0673C122.121 44.3629 121.441 44.5107 120.643 44.5107C117.924 44.5107 116.565 43.1363 116.565 40.3877V33.1613H119.801V39.102C119.801 39.6044 119.816 40.0034 119.845 40.299C119.875 40.5945 119.949 40.927 120.067 41.2965C120.2 41.6512 120.414 41.9172 120.71 42.0945C121.02 42.2718 121.412 42.3605 121.885 42.3605C123.481 42.3605 124.279 41.2226 124.279 38.9468V33.1613H127.515V40.2103C127.515 42.028 127.537 43.4023 127.582 44.3333Z" fill="black"/>
<path d="M141.121 39.368H133.053C133.038 40.299 133.237 41.0822 133.651 41.7177C134.08 42.3383 134.737 42.6487 135.624 42.6487C136.939 42.6487 137.686 41.9984 137.863 40.698H141.011C140.818 42.0575 140.227 43.0477 139.237 43.6683C138.247 44.2742 137.028 44.5772 135.58 44.5772C133.777 44.5772 132.38 44.0895 131.39 43.1142C130.4 42.124 129.905 40.7275 129.905 38.9247C129.905 37.0183 130.4 35.5332 131.39 34.4692C132.38 33.3904 133.814 32.851 135.691 32.851C136.828 32.851 137.833 33.0948 138.705 33.5825C139.577 34.0702 140.22 34.8164 140.634 35.8213C140.959 36.575 141.121 37.7572 141.121 39.368ZM137.996 37.506C137.996 36.6489 137.796 35.9765 137.397 35.4888C136.998 35.0012 136.422 34.7573 135.668 34.7573C134.885 34.7573 134.264 35.0159 133.806 35.5332C133.348 36.0356 133.119 36.6932 133.119 37.506H137.996Z" fill="black"/>
<path d="M153.79 30.8782H150.421V28.3068H153.79V30.8782ZM153.724 45.353C153.724 46.6387 153.436 47.4958 152.859 47.9243C152.283 48.3677 151.322 48.5893 149.978 48.5893C149.682 48.5893 149.209 48.5745 148.559 48.545V46.3283C148.795 46.3579 148.965 46.3727 149.069 46.3727C150.015 46.3727 150.487 45.7815 150.487 44.5993V33.1392H153.724V45.353Z" fill="black"/>
<path d="M166.427 40.9418C166.427 41.6364 166.272 42.2349 165.962 42.7373C165.651 43.2398 165.223 43.624 164.676 43.89C164.144 44.1412 163.59 44.3259 163.014 44.4442C162.437 44.5624 161.824 44.6215 161.174 44.6215C157.834 44.6215 156.164 43.3358 156.164 40.7645H159.423C159.467 42.0945 160.102 42.7595 161.329 42.7595C161.817 42.7595 162.245 42.6265 162.615 42.3605C162.984 42.0945 163.169 41.7324 163.169 41.2743C163.169 40.5502 162.459 40.0256 161.041 39.7005L159.822 39.4123C159.334 39.2941 158.92 39.1685 158.58 39.0355C158.24 38.9025 157.893 38.7178 157.538 38.4813C157.198 38.2449 156.932 37.9419 156.74 37.5725C156.563 37.203 156.474 36.7671 156.474 36.2647C156.474 35.6292 156.615 35.0824 156.896 34.6243C157.191 34.1514 157.583 33.7968 158.07 33.5603C158.573 33.3239 159.083 33.1539 159.6 33.0505C160.132 32.9323 160.686 32.8732 161.262 32.8732C162.637 32.8732 163.767 33.1539 164.654 33.7155C165.541 34.277 166.021 35.2007 166.095 36.4863H162.925C162.895 35.9395 162.733 35.5036 162.437 35.1785C162.156 34.8534 161.75 34.6908 161.218 34.6908C160.775 34.6908 160.383 34.7943 160.043 35.0012C159.703 35.208 159.533 35.5184 159.533 35.9322C159.533 36.3312 159.703 36.6415 160.043 36.8632C160.398 37.0848 160.945 37.2769 161.684 37.4395L162.947 37.7277C164.011 37.9789 164.853 38.3409 165.474 38.8138C166.109 39.2719 166.427 39.9813 166.427 40.9418Z" fill="black"/>
</g>
<defs>
<clipPath id="clip0_28_299">
<rect width="38" height="38" fill="white" transform="translate(51.9036 19)"/>
</clipPath>
</defs>
</svg>
